<?xml version="1.0" standalone="no"?>
<!DOCTYPE svg PUBLIC "-//W3C//DTD SVG 1.1//EN" "http://www.w3.org/Graphics/SVG/1.1/DTD/svg11.dtd" >
<svg xmlns="http://www.w3.org/2000/svg" xmlns:xlink="http://www.w3.org/1999/xlink" version="1.1">
<metadata>
Created by FontForge 20160407 at Sun May 29 16:29:52 2016
 By Jimmy Wärting
Vanessa Bays @ bythebutterfly.com
</metadata>
<defs>
<font id="AllThingsPink" horiz-adv-x="494" >
  <font-face 
    font-family="All Things Pink"
    font-weight="100"
    font-stretch="normal"
    units-per-em="1000"
    panose-1="2 0 2 3 0 0 0 0 0 0"
    ascent="800"
    descent="-200"
    x-height="486"
    cap-height="712"
    bbox="-168.1 -195.083 911.861 875.026"
    underline-thickness="50"
    underline-position="-150"
    unicode-range="U+0020-F8FF"
  />
<missing-glyph horiz-adv-x="364" 
d="M66 33h199v600h-199v-600zM33 0v666h265v-666h-265z" />
    <glyph glyph-name=".notdef" horiz-adv-x="364" 
d="M66 33h199v600h-199v-600zM33 0v666h265v-666h-265z" />
    <glyph glyph-name=".null" horiz-adv-x="0" 
 />
    <glyph glyph-name="nonmarkingreturn" horiz-adv-x="333" 
 />
    <glyph glyph-name="space" unicode=" " horiz-adv-x="300" 
 />
    <glyph glyph-name="exclam" unicode="!" horiz-adv-x="160" 
d="M98 707q-1 -23 -4 -127t-3 -146.5t5.5 -118t17.5 -135.5q3 -12 -4 -22.5t-19 -13t-22.5 4.5t-12.5 19q-14 62 -19.5 141.5t-5.5 123.5t3.5 149.5t3.5 126.5q0 12 9 20.5t21.5 8.5t21 -9t8.5 -22zM125 43q0 -12 -9 -21t-21 -9t-21 9t-9 21t9 21t21 9t21 -9t9 -21z" />
    <glyph glyph-name="quotedbl" unicode="&#x22;" horiz-adv-x="244" 
d="M75 690q0 -98 5 -154q1 -13 -7 -22.5t-20.5 -10.5t-22 7t-10.5 20q-5 59 -5 160q0 12 9 21t21 9t21 -9t9 -21zM197 684q1 -14 4.5 -78.5t7.5 -99.5q1 -13 -6.5 -22.5t-20 -11t-22 6t-11.5 19.5q-4 36 -7.5 102t-4.5 80q-1 12 7 21.5t20.5 10.5t22 -7t10.5 -21z" />
    <glyph glyph-name="numbersign" unicode="#" horiz-adv-x="599" 
d="M362 284q-9 63 -15 140l-81 -22l-64 -19q3 -68 4 -134l74 16zM372 225l-79 -18l-86 -19q1 -46 1 -91q0 -12 -9 -21t-21 -9t-21 9t-9 21v78q-55 -10 -107 -19q-12 -2 -22 5.5t-12 20t5.5 22.5t20.5 12q52 8 114 20l-4 130l-94 -24q-12 -3 -22.5 3.5t-13.5 18.5t3.5 22.5
t18.5 13.5q54 13 106 28q-6 123 -15 258q-1 12 7.5 21.5t20.5 10.5t21.5 -7.5t10.5 -20.5q9 -127 14 -245l49 14q63 18 95 26q-2 32 -4 91.5t-3 76.5q-1 12 7.5 21t21 10t21.5 -7.5t10 -21.5q1 -20 3 -73.5t3 -82.5l67 13q12 2 22.5 -5.5t12.5 -19.5t-5.5 -22.5t-19.5 -12.5
q-35 -5 -73 -14q5 -79 14 -141l110 21q12 2 22.5 -5.5t12.5 -19.5t-5.5 -22.5t-19.5 -12.5q-57 -10 -111 -21q12 -62 30 -118q3 -12 -2.5 -23t-17.5 -14.5t-23 2t-15 17.5q-18 59 -30 124z" />
    <glyph glyph-name="dollar" unicode="$" horiz-adv-x="489" 
d="M334 477q-12 61 -46.5 85.5t-77.5 19.5q-41 -4 -66 -27q-21 -19 -16 -37q7 -27 62 -68q21 -15 63 -44l63 -43l36 -28q16 -13 34.5 -30.5t31.5 -34t24.5 -37.5t16.5 -42t4.5 -45.5t-8.5 -49.5q-13 -39 -41.5 -65t-64 -35t-73.5 -8q-37 2 -74 14t-69 34q-33 22 -57.5 52
t-34.5 71.5t-1 86.5q2 12 12.5 19t22.5 4.5t19 -13t4 -22.5q-12 -60 23.5 -107t98.5 -68q62 -20 112.5 -4.5t64.5 59.5q18 54 -12.5 100.5t-103.5 99.5l-64 44q-43 29 -63 44q-72 54 -84 100q-14 54 34 98q40 36 99 42q66 7 120 -31t69 -124q3 -12 -4 -22t-19.5 -12.5
t-22.5 4.5t-12 20zM295 -53q-1 -12 -2 -31q0 -20 -1 -25q-2 -35 -5 -60q-2 -12 -12 -19.5t-22.5 -5.5t-20 12t-5.5 23q4 21 5 53q1 5 1 26q1 19 2 31t10.5 20.5t21.5 7.5t20.5 -10.5t7.5 -21.5zM281 764q-2 -45 -7 -83q-2 -12 -12 -19.5t-22 -6t-19.5 11.5t-6.5 22
q5 36 7 77q1 13 10 21.5t21.5 7.5t21 -10t7.5 -21z" />
    <glyph glyph-name="percent" unicode="%" horiz-adv-x="630" 
d="M593 674q-247 -312 -374 -660q-4 -12 -15.5 -17t-23 -1t-16.5 15.5t-1 22.5q130 357 382 678q8 9 20.5 10.5t22 -6t11 -20t-5.5 -22.5zM234 490q0 -12 -9 -21t-21 -9t-21 9t-9 21t9 21t21 9t21 -9t9 -21zM471 102q0 -12 -9 -21t-21 -9t-21 9t-9 21t9 21t21 9t21 -9t9 -21
z" />
    <glyph glyph-name="ampersand" unicode="&#x26;" horiz-adv-x="549" 
d="M307 229q33 4 86 18q68 18 90 22q12 3 22.5 -4t13 -19t-4.5 -22.5t-19 -12.5q-22 -5 -55 -14q-1 -3 -3 -6q-70 -104 -135 -161q-116 -101 -212 -46q-35 20 -47 55t-7 66.5t20 66.5q29 70 85 136q-19 1 -35 7q-63 22 -61 97q2 59 44.5 127.5t96.5 108.5q66 49 118 31
q60 -23 68 -127q1 -12 -7 -21.5t-20.5 -10.5t-22 7t-10.5 21q-5 65 -29 74q-21 8 -62 -22q-45 -33 -80 -90t-36 -100q-1 -31 20 -39q26 -9 70 4q8 2 13 3.5t10 3.5l8 4q3 2 10.5 6.5t14.5 7.5l22 13q7 3 9 5q2 0 3 1q3 1 5 2h7q14 0 23 -10q12 -14 4 -32q-1 -4 -5 -8l-6 -5
l-2 -2q-3 -1 -13 -7.5t-13 -8t-11.5 -7t-12.5 -7.5l-10 -8l-12 -8q-3 -2 -9 -7l-11 -9l-9 -9l-10 -10q-21 -22 -47 -59.5t-42 -75.5q-36 -86 9 -112q58 -34 143 39q43 38 90 101q-20 -4 -38 -7q-12 -1 -22 6.5t-11.5 19.5t6 22t19.5 12z" />
    <glyph glyph-name="quotesingle" unicode="'" horiz-adv-x="108" 
d="M72 747q1 -53 1 -137q0 -12 -9 -21t-21 -9t-21 9t-9 21q0 84 -1 135q0 13 8.5 22t21 9t21.5 -8.5t9 -20.5z" />
    <glyph glyph-name="parenleft" unicode="(" horiz-adv-x="208" 
d="M144 730q-35 -72 -55 -169.5t-20 -197.5q1 -107 25.5 -198t72.5 -152q7 -10 5.5 -22.5t-11 -20t-22 -6t-20.5 10.5q-55 71 -82 172.5t-28 214.5q0 107 21.5 211.5t59.5 182.5q5 11 17 15t23 -1t15 -17t-1 -23z" />
    <glyph glyph-name="parenright" unicode=")" horiz-adv-x="209" 
d="M25 10q53 100 77.5 230.5t9.5 265.5t-76 223q-7 10 -4.5 22.5t12.5 19.5t22.5 4.5t19.5 -12.5q52 -75 74.5 -180.5t16.5 -212t-31.5 -208t-66.5 -180.5q-6 -11 -18 -14.5t-23 2t-14.5 17.5t1.5 23z" />
    <glyph glyph-name="asterisk" unicode="*" horiz-adv-x="427" 
d="M269 516l111 -63q11 -6 14 -18.5t-3 -23t-18.5 -13.5t-22.5 3q-32 19 -119 67l-5 -99q-1 -12 -10 -20.5t-21.5 -7.5t-21 10t-7.5 22l5 87l-108 -59q-11 -6 -23 -2.5t-17.5 14.5t-2 23t14.5 17l112 63q-60 35 -106 68q-10 7 -12 19.5t5.5 22.5t20 12t22.5 -6
q43 -31 99 -64q3 47 6 88q1 12 10.5 20.5t21.5 7.5t20.5 -10.5t7.5 -21.5q-3 -40 -5 -86l80 44q11 5 23 1.5t17.5 -14.5t2 -23t-14.5 -18z" />
    <glyph glyph-name="plus" unicode="+" horiz-adv-x="385" 
d="M195 575q-5 -59 -3 -107q66 12 129 16q12 1 21.5 -7.5t10.5 -20.5t-7.5 -21.5t-20.5 -10.5q-62 -4 -128 -16q6 -54 22 -124q3 -12 -3.5 -22.5t-18.5 -13.5t-22.5 3.5t-13.5 18.5q-16 71 -23 125q-41 -10 -99 -26q-12 -3 -23 3t-14 18t3 23t18 14q65 18 110 28
q-3 58 2 124q1 13 10.5 21t22 7t20.5 -10.5t7 -21.5z" />
    <glyph glyph-name="comma" unicode="," horiz-adv-x="186" 
d="M153 71q-24 -121 -140 -197q-10 -7 -22 -4.5t-19 13t-4.5 22.5t13.5 19q94 62 114 159q2 12 12.5 19t22.5 4.5t19 -13t4 -22.5z" />
    <glyph glyph-name="hyphen" unicode="-" horiz-adv-x="316" 
d="M28 332q81 0 217 26q12 3 22.5 -4t13 -19t-4.5 -22.5t-19 -12.5q-142 -28 -229 -28q-12 0 -21 9t-9 21t9 21t21 9z" />
    <glyph glyph-name="period" unicode="." horiz-adv-x="97" 
d="M62 32q0 -12 -9 -21t-21 -9t-21 9t-9 21t9 21t21 9t21 -9t9 -21z" />
    <glyph glyph-name="slash" unicode="/" horiz-adv-x="500" 
d="M-3 31q20 26 53 80l53 86q50 75 151 241.5t158 250.5q7 10 19.5 12.5t22.5 -4.5t12.5 -19.5t-4.5 -22.5q-58 -84 -158.5 -250.5t-150.5 -241.5q-12 -17 -51 -83q-33 -53 -57 -85q-8 -10 -20 -11.5t-22 6t-11.5 19.5t5.5 22z" />
    <glyph glyph-name="zero" unicode="0" 
d="M253 648q-36 -6 -39 -7q-54 -21 -92 -116q-40 -95 -42 -211q-2 -119 39 -195q43 -78 124 -80q70 -2 113 77t46 200q2 122 -37 216q-41 95 -107 114q-3 1 -5 2zM272 704h2q94 -27 146 -149q44 -106 42 -240q-3 -136 -53 -228q-61 -111 -168 -108q-115 3 -175 112
q-48 89 -46 224q2 127 46 233q49 118 126 149q9 3 20.5 5.5t24 4t13.5 1.5q12 3 22 -4z" />
    <glyph glyph-name="one" unicode="1" horiz-adv-x="306" 
d="M263 679q0 -113 4 -338t4 -337q0 -12 -9 -21t-21 -9t-21 9t-9 21q0 112 -4 337t-4 338q0 12 9 21t21 9t21 -9t9 -21z" />
    <glyph glyph-name="two" unicode="2" horiz-adv-x="518" 
d="M103 580q1 2 11 12l12 12l12 12l14 12l12 12q9 7 15 11.5t15 10.5l16 10q7 5 15 9q74 37 145 21q40 -10 66 -40t28 -79q3 -87 -100 -242q-59 -88 -157 -204l-71 -80q8 0 18 1q23 0 58.5 0.5t40.5 0.5h209q13 0 22 -8.5t9 -21t-8.5 -21.5t-20.5 -9h-211q-5 0 -40 -0.5
t-59 -0.5q-36 -1 -57 0q-13 0 -21 1q-5 1 -9 2t-8 3q-11 5 -15 17q-10 26 15 46q2 1 9 6l2 2q49 51 91 100q96 114 153 199q93 139 90 207q-2 51 -48 62q-49 12 -103 -16q-19 -9 -40 -26t-31 -27l-37 -36q-9 -9 -21 -9t-21 9t-9 21t9 21z" />
    <glyph glyph-name="three" unicode="3" horiz-adv-x="554" 
d="M124 621q32 35 76 60.5t87 30.5q53 5 91 -23q40 -31 52 -96q9 -48 -12.5 -91t-57.5 -75l-14 -12q58 -17 103 -60.5t61 -101.5q16 -60 6.5 -115t-43.5 -96q-35 -41 -88 -58q-52 -18 -116 -5q-123 25 -215 146q-7 10 -5.5 22t11.5 19.5t22 6t20 -11.5q79 -104 179 -124
q94 -18 146 44q23 28 30.5 67.5t-5.5 88.5q-14 51 -59 87t-98 40h-4q-2 0 -6.5 -1t-10.5 -1q-29 -4 -46 12q-11 10 -12 24q0 16 12 26q7 6 19 9q6 2 10 3t5.5 1.5t2.5 0.5q8 4 16 7.5t11 5t7.5 4.5t8.5 6t12 10q62 55 52 110q-9 43 -31 60q-18 14 -47 11q-31 -3 -65 -23
q-35 -20 -59 -48q-9 -9 -21.5 -10t-21.5 7.5t-10 21t7 21.5z" />
    <glyph glyph-name="four" unicode="4" horiz-adv-x="587" 
d="M138 667q0 -7 -1 -44.5t-2 -84t-2 -87.5q-1 -79 -1 -126q1 -27 2 -43v-7q14 -3 39 -6q45 -6 126 -8q48 -1 81 -2q-5 77 -9.5 218t-7.5 199q-1 13 7.5 22t21 10t21.5 -7.5t10 -20.5q3 -62 7.5 -204t9.5 -217h51h31q12 0 21 -9t9 -21t-9 -21t-21 -9h-30h-47q9 -99 24 -183
q2 -12 -5 -22t-19.5 -12.5t-22.5 4.5t-13 20q-15 87 -24 193q-48 0 -88 2q-83 2 -131 8q-30 3 -48 8q-11 4 -19 8q-15 8 -20 21q-4 9 -5 32q-1 18 -2 47q0 47 1 127q1 41 2 87.5t2 84.5t1 45q0 12 9 20.5t21.5 8.5t21 -9t8.5 -22z" />
    <glyph glyph-name="five" unicode="5" horiz-adv-x="518" 
d="M403 638q-2 0 -152 -2q-58 0 -89 -1q-16 -1 -25 -1q-3 -7 -6 -17q-9 -27 -17 -67l-9 -43q18 9 25 13t20.5 8.5t33.5 9.5q51 12 95.5 2t80.5 -37t62 -64t40 -81q25 -72 22 -142.5t-35 -124.5q-34 -57 -96 -85.5t-145 -22.5q-113 8 -195 78q-9 8 -10 20.5t7 22t20.5 10.5
t22.5 -7q66 -57 159 -64q133 -10 186 79q24 40 26.5 96t-18.5 122q-26 75 -82.5 116t-125.5 24q-10 -3 -16.5 -4.5t-11 -3t-10.5 -4.5l-9 -4q-3 -2 -13 -7.5t-16 -8.5l-1 -2l-2 -1l-4 -3q-2 -3 -6 -6q-28 -24 -53 -7q-12 8 -15 23q-1 6 -1 13q0 10 2 27q4 30 13 71t19 71
q5 17 9 28q8 18 18 25l12 5q3 0 5 1h11q11 1 31 2q32 1 91 1q148 2 150 2q12 1 21 -7.5t10 -21t-7.5 -21.5t-21.5 -10z" />
    <glyph glyph-name="six" unicode="6" horiz-adv-x="497" 
d="M139 72q11 -13 24 -24q49 -39 108 -12q59 28 102 102q43 73 40 136q-4 59 -55 75q-29 9 -53.5 0t-53.5 -36q-24 -23 -54 -76q-23 -41 -55 -157q-1 -4 -3 -8zM361 589q-58 87 -108 75q-50 -11 -98 -109q-26 -54 -45 -126q-20 -70 -23 -143q-4 -78 12 -135q22 73 46 116
q34 61 66 90q81 76 165 50q46 -15 70 -49.5t26 -80.5q5 -81 -47 -170q-53 -89 -129 -125q-93 -44 -171 20q-108 88 -98 287q4 77 24.5 155t49.5 137q61 124 139 142q90 20 171 -100q7 -11 4.5 -23t-13 -19t-22.5 -4.5t-19 12.5z" />
    <glyph glyph-name="seven" unicode="7" horiz-adv-x="449" 
d="M56 699q20 -1 189 4q68 2 97 2q21 0 33 -2q8 0 14 -2q5 -2 9 -4q11 -7 14.5 -19t-0.5 -30q-3 -11 -8 -27q-10 -26 -28 -66l-32 -65q-19 -39 -19 -40q-113 -241 -151 -441q-2 -13 -12 -20t-22.5 -4.5t-19.5 12.5t-4 22q38 209 155 457l19 38q19 39 31 66q18 38 26 61l2 4
h-8q-26 0 -94 -2q-171 -5 -193 -4q-12 0 -20.5 9.5t-8.5 21.5t9.5 20.5t21.5 8.5z" />
    <glyph glyph-name="eight" unicode="8" horiz-adv-x="446" 
d="M209 500q63 66 128 118q-22 25 -55.5 32.5t-64.5 -2.5q-35 -10 -54 -31q-15 -18 -10 -34q10 -36 56 -83zM402 620q8 -21 -10 -35q-71 -56 -140 -127l12 -12q34 -32 55 -54t45.5 -59.5t36.5 -74.5q31 -104 -8 -181q-44 -87 -156 -93q-18 -1 -30 -1q-14 0 -30.5 3.5
t-33.5 12.5q-111 55 -116 160q-3 82 62 188q32 52 80 108q-59 60 -74 110q-14 49 23 92q31 34 83 49q35 8 69.5 7t69.5 -20.5t57 -55.5q5 -8 5 -17zM212 413q-42 -50 -72 -98q-56 -90 -53 -153q4 -70 82 -109q16 -8 29.5 -9.5t36.5 0.5q76 4 105 60q28 55 3 136
q-13 43 -42 80t-78 83z" />
    <glyph glyph-name="nine" unicode="9" horiz-adv-x="444" 
d="M353 571q-1 6 -2.5 17t-1.5 12q-3 13 -6 19q-13 27 -56 22q-44 -4 -79 -30q-65 -47 -100 -132.5t-7 -151.5q17 -42 59 -45q43 -4 78 30q10 10 19.5 23.5t15.5 24t14.5 30t12.5 28.5l12 34q9 24 12 31l2 7q2 6 6 17t6 20l11 31l3 10zM361 410q-37 -97 -81 -140
q-55 -54 -126 -48q-35 3 -64 23.5t-45 57.5q-26 65 -11.5 134t52 128t86.5 94q49 36 109 42q84 9 116 -54q7 -15 11 -37q0 -1 1.5 -11.5t2.5 -15.5t1 -9q2 -3 3 -6q4 -10 5 -26q3 -23 2 -65q0 -20 -1 -44t-2 -44t-1 -22q-7 -190 -3 -359q0 -13 -8.5 -22t-21 -9t-21.5 8.5
t-9 20.5q-4 172 3 363q0 3 1 17.5t1 23.5z" />
    <glyph glyph-name="colon" unicode=":" horiz-adv-x="161" 
d="M126 432q0 -12 -9 -21t-21 -9t-21 9t-9 21t9 21t21 9t21 -9t9 -21zM117 86q0 -12 -9 -21t-21 -9t-21 9t-9 21t9 21t21 9t21 -9t9 -21z" />
    <glyph glyph-name="semicolon" unicode=";" horiz-adv-x="124" 
d="M79 39q-1 -47 -20.5 -77.5t-59.5 -57.5q-11 -7 -23 -4.5t-19 13t-4.5 22.5t12.5 19q30 20 41.5 38t12.5 49q0 12 9.5 20.5t21.5 8.5t20.5 -9.5t8.5 -21.5zM92 427q0 -12 -9 -21t-21 -9t-21 9t-9 21t9 21t21 9t21 -9t9 -21z" />
    <glyph glyph-name="less" unicode="&#x3c;" horiz-adv-x="354" 
d="M301 403q-30 -28 -153 -120l-73 -55l-11 -9q7 -7 18 -16q27 -22 76 -50q29 -18 146 -78q11 -6 14.5 -18t-2 -23t-17.5 -14.5t-23 1.5q-118 62 -149 80q-52 31 -83 55q-19 15 -30 29q-16 18 -18 36q-1 12 5 22q2 3 5 6t8 7q9 7 24 20l74 55q118 88 149 116q9 9 21.5 8
t21 -10t7.5 -21.5t-10 -20.5z" />
    <glyph glyph-name="equal" unicode="=" horiz-adv-x="360" 
d="M52 468q36 -2 119 2q92 4 124 4q12 0 21 -9t9 -21t-9 -21t-21 -9q-31 0 -121 -4q-84 -4 -124 -2q-13 1 -21.5 10t-7.5 21.5t10 21t21 7.5zM35 351q17 0 36.5 0.5t43 1t35.5 0.5q71 1 119 -2q13 -1 21 -10.5t7 -22t-10.5 -20.5t-21.5 -7q-45 3 -113 2l-117 -2q-12 0 -21 9
t-9 21t9 21t21 9z" />
    <glyph glyph-name="greater" unicode="&#x3e;" horiz-adv-x="356" 
d="M263 256l3 3l3 1l-3 3q-2 1 -3 -3v-4zM10 80q27 21 159 111l75 51l12 9q-7 8 -18 17q-26 23 -73 53q-25 17 -55 35l-56 33q-25 15 -32 18q-10 7 -13 19t3.5 22.5t18.5 13.5t23 -3q6 -4 32 -19l56 -34l56 -34q51 -34 80 -59q43 -38 45 -68q0 -6 -1.5 -11t-3.5 -8l-2 -2
q-2 -3 -5 -6t-8 -7l-24 -18l-76 -52q-131 -90 -155 -109q-10 -7 -22.5 -5.5t-20 11t-6 22t10.5 20.5z" />
    <glyph glyph-name="question" unicode="?" horiz-adv-x="418" 
d="M-5 514q20 29 64.5 72.5t92.5 74.5q62 40 111 45q68 8 105 -46q15 -23 18 -53.5t-5 -52.5q-10 -30 -29 -62t-30.5 -47.5t-44 -52.5t-35.5 -41q-43 -50 -64 -95.5t-17 -103.5q1 -13 -7.5 -22t-21 -10t-21.5 7.5t-10 20.5q-4 73 21.5 129t73.5 113l37 43q31 35 40.5 48
t26 39.5t23.5 51.5q5 13 3 29t-8 25q-16 25 -48 21q-35 -4 -85 -36q-43 -29 -83.5 -68t-56.5 -63q-7 -10 -19 -12.5t-22.5 4.5t-13 19t4.5 23zM161 29q0 -12 -9 -21t-21 -9t-21 9t-9 21t9 21t21 9t21 -9t9 -21z" />
    <glyph glyph-name="at" unicode="@" horiz-adv-x="767" 
d="M451 445q-18 41 -46 45q-27 5 -62 -22q-37 -28 -59 -74t-15 -84q9 -43 47 -47q18 -2 37.5 6t32.5 24q35 43 51 93q1 1 3 26q1 14 4 21q2 7 7 12zM464 301q-15 -26 -32 -46q-23 -28 -56 -41.5t-66 -10.5q-37 4 -64 28.5t-35 66.5q-12 58 18 120q29 61 78 98q56 43 109 33
q63 -10 93 -88q6 -16 -4 -29q8 -17 5 -44q-2 -21 -2 -24q9 -40 22 -66q14 -24 30 -27t36 10q23 15 40.5 42.5t20.5 54.5q8 56 -6.5 104.5t-45.5 82t-73.5 54.5t-91.5 28q-67 9 -129.5 -8.5t-113.5 -67.5t-71 -126q-23 -93 -10.5 -167t56.5 -129t115 -85q72 -29 163 -25
q74 3 139 34t103 87q7 10 19.5 12.5t22.5 -4.5t12.5 -19.5t-4.5 -22.5q-48 -69 -126 -106.5t-164 -40.5q-104 -4 -189 31q-84 34 -137.5 101t-69 156.5t11.5 193.5q19 70 59.5 122.5t92.5 81t110.5 39.5t117.5 2.5t110.5 -34.5t90.5 -67.5t58 -102.5t10 -132
q-5 -40 -30 -78.5t-58 -60.5q-41 -27 -80 -19q-44 8 -71 58q-8 14 -14 31z" />
    <glyph glyph-name="A" unicode="A" horiz-adv-x="625" 
d="M172 262q112 18 204 20q-21 59 -64 196q0 2 -4 17t-11 41l-11 48l-2 6l-43 -128zM151 198q-35 -108 -54 -194q-2 -12 -12.5 -19t-22.5 -4.5t-19 13t-4 22.5q16 77 45 170q-13 -3 -23 4t-12.5 19.5t4.5 22.5t19 12l33 7l80 231l51 157l10 32q4 14 7 22q2 6 3 9.5t3 5.5
q2 5 6 8q7 5 15 7q14 2 25 -8q6 -5 9 -14q2 -3 4 -9q3 -8 7 -24l19 -69l11 -47l10 -40q4 -14 5 -16q46 -149 70 -214q32 0 63 -3q12 -1 20 -10.5t7 -22t-10.5 -20.5t-22.5 -7q-16 2 -33 2q51 -120 123 -213q7 -9 5.5 -21.5t-11 -20t-22 -6t-20.5 11.5q-81 104 -140 251
q-108 -1 -248 -25z" />
    <glyph glyph-name="B" unicode="B" horiz-adv-x="512" 
d="M94 480q2 -47 3 -90l53 25q49 23 76 38q84 46 102 92q17 42 -4 74q-20 29 -63 21q-49 -9 -93 -55t-74 -105zM97 104q40 -29 97 -46q57 -16 108 -12q56 4 86 33q33 33 30 96q-3 62 -50.5 115.5t-106.5 59.5q-66 7 -118 -7q-6 -2 -26 -11l-12 -5l-2 -1q-2 -1 -4 -1
q2 -117 -2 -221zM271 409q82 -10 142.5 -79.5t64.5 -152.5q4 -89 -48 -140q-45 -45 -123 -51q-52 -4 -109 9.5t-104 39.5l-4 -59q-1 -13 -10.5 -21t-22 -7t-20.5 10.5t-7 21.5q22 271 -8 695q-1 12 7.5 21.5t20.5 10.5t21.5 -7.5t10.5 -20.5q3 -51 6 -95q74 99 163 116
q39 7 72 -6q32 -13 51 -42q18 -27 21 -62q2 -34 -11 -67q-24 -61 -113 -114z" />
    <glyph glyph-name="C" unicode="C" horiz-adv-x="539" 
d="M324 553q-25 65 -60 85q-26 15 -57 2q-34 -14 -66 -56q-32 -41 -49 -95q-36 -113 -31 -222q7 -129 73 -195q22 -21 63 -32q86 -22 159 51q64 64 95 167q4 12 15 17.5t23 2t17.5 -14.5t2.5 -23q-36 -117 -111 -192q-97 -96 -215 -66q-57 15 -91 48q-83 81 -91 234
q-6 121 33 243q21 64 61 116t89 73q58 24 110 -6q53 -30 86 -115q4 -12 -1 -23t-16.5 -15.5t-22.5 0.5t-16 16z" />
    <glyph glyph-name="D" unicode="D" horiz-adv-x="543" 
d="M97 47q180 -20 276 54q107 83 65 262q-21 87 -77.5 155t-136.5 98q-38 14 -129 15q19 -295 2 -584zM82 691h19q14 0 19.5 -0.5t19.5 -0.5t21.5 -1t20 -2.5t21.5 -3.5l21 -5q11 -2 20 -6q96 -35 162 -114.5t90 -180.5q25 -112 3 -193q-23 -80 -89 -130q-117 -89 -321 -66
q-9 -15 -27 -14q-13 1 -21 10.5t-7 21.5q23 324 -1 656q-1 12 7 21.5t21 10.5q8 1 16 -3h5z" />
    <glyph glyph-name="E" unicode="E" horiz-adv-x="520" 
d="M73 675q19 1 124 13q96 11 158 10q12 0 20.5 -9t8.5 -21.5t-9 -21t-22 -8.5q-57 1 -149 -9q-105 -12 -126 -14q5 -83 5 -200q136 24 226 26q13 0 22 -8.5t9 -21t-8.5 -21.5t-20.5 -9q-88 -2 -228 -27q-1 -151 -1 -155q0 -6 -1.5 -36.5t-1.5 -49.5q-1 -30 0 -48
q1 -10 1 -15q1 -1 3 -1q12 -3 36 -3q44 -1 119 7q54 6 134 18l80 12q13 1 22.5 -6.5t11 -20t-6 -22t-19.5 -11.5q-1 0 -81.5 -12t-133.5 -18q-80 -8 -127 -7q-30 0 -49 5q-31 7 -41 27q-7 13 -9 44q-1 20 0 52q0 20 1.5 49.5t1.5 35.5q0 35 0.5 112.5t0.5 122t-2 109.5
t-6 119q-1 12 7 21.5t21 10.5q22 2 30 -19z" />
    <glyph glyph-name="F" unicode="F" horiz-adv-x="374" 
d="M96 354q2 -75 2 -350q0 -12 -9 -21t-21 -9t-21 9t-9 21v92v100q0 26 -0.5 89.5t-2 99.5t-4 89t-7 98.5t-10.5 89.5q-1 12 6.5 22t19.5 12q11 1 20.5 -5t12.5 -16q19 1 124 13q96 11 158 10q12 0 20.5 -9t8.5 -21.5t-9 -21t-22 -8.5q-57 1 -149 -9q-104 -12 -124 -14
q10 -92 14 -201q138 25 229 27q13 0 22 -8.5t9 -21t-8.5 -21.5t-20.5 -9q-88 -2 -229 -27z" />
    <glyph glyph-name="G" unicode="G" horiz-adv-x="500" 
d="M322 500q-7 45 -27.5 86t-45.5 61q-23 19 -47 13q-32 -9 -66 -57q-53 -77 -72.5 -198t4.5 -213q21 -85 65 -123q51 -45 126 -39q75 5 114 57q50 65 55 180q-160 -3 -205 -8q-12 -1 -21.5 6.5t-11 20t6 22t20.5 11.5q34 4 72.5 5.5t91 2t73.5 1.5q20 1 28 -17q6 -8 6 -18
q0 -154 -67 -242q-38 -49 -98 -69.5t-122 -9.5q-60 12 -106 51q-59 52 -84 155q-27 102 -5 236q20 134 83 223q47 67 98 81q51 13 98 -23q36 -28 62 -79q24 -52 34 -106q2 -12 -5 -22t-19 -12.5t-22 5t-13 19.5z" />
    <glyph glyph-name="H" unicode="H" horiz-adv-x="479" 
d="M397 698q-11 -157 -9 -315q16 0 32 -1q12 -1 20.5 -10.5t7.5 -21.5t-10.5 -20.5t-21.5 -7.5q-13 1 -26 1q9 -234 53 -328q5 -12 1 -23.5t-15.5 -16.5t-23 -1t-16.5 15q-49 107 -59 354q-116 -4 -223 -39q-1 -172 -19 -298q-2 -13 -12 -20t-22.5 -5.5t-19.5 11.5t-6 22
q17 116 18 267l-26 -12q-11 -5 -23 -1t-17 15t-1 23t15 17l52 23q0 53 -3.5 178.5t-3.5 193.5q0 12 9 21t21 9t21 -9t9 -21q0 -63 3.5 -183.5t3.5 -168.5q108 33 222 37q-2 160 9 319q1 13 10.5 21t22 7t20.5 -10.5t7 -21.5z" />
    <glyph glyph-name="I" unicode="I" horiz-adv-x="419" 
d="M9 689q162 4 309 23q13 1 22.5 -6.5t11 -20t-6 -22t-19.5 -11.5q-68 -8 -139 -14q4 -88 4.5 -184t-1.5 -222.5t-2 -183.5q97 6 172 -3q12 -2 19.5 -11.5t6 -22t-11 -20t-22.5 -6.5q-32 4 -65 5.5t-74.5 -1.5t-63 -5t-76 -8.5t-68.5 -8.5q-12 -1 -21.5 6.5t-11 20t6 22
t20.5 11.5q15 2 59 7l70 8q0 61 2 185.5t1.5 221.5t-4.5 185q-57 -4 -116 -5q-13 0 -22 8.5t-9 21t8.5 21.5t20.5 9z" />
    <glyph glyph-name="J" unicode="J" horiz-adv-x="508" 
d="M111 699q135 23 336 4q12 -1 20 -10.5t7 -22t-10.5 -20.5t-22.5 -7q-60 6 -107 8q16 -141 11 -303q-7 -226 -58 -311q-15 -25 -40 -41.5t-55 -18.5q-71 -5 -118 38q-38 34 -58 99q-6 21 -11 44t-7.5 49t-4 43t-3 44t-2.5 34q-1 12 7 21.5t20.5 10.5t22 -7t10.5 -21
q1 -8 2.5 -35t2.5 -42.5t4 -39.5t7 -44.5t10 -38.5q15 -50 41 -73q28 -26 73 -22q30 2 47 32q44 72 50 281q5 162 -12 302q-82 0 -152 -13q-12 -2 -22 5.5t-12.5 19.5t5 22t19.5 13z" />
    <glyph glyph-name="K" unicode="K" horiz-adv-x="505" 
d="M350 621q-5 -6 -25 -29l-54 -60l-58 -64l-81 -92q-13 -15 -20 -24l35 -30l119 -104l124 -109q61 -54 73 -66q8 -9 8 -21.5t-9 -21t-21.5 -8.5t-21.5 9q-10 11 -69 63l-124 109l-119 104l-8 7q-1 -154 -16 -274q-2 -12 -12 -19.5t-22 -6t-19.5 11.5t-6.5 22
q10 75 13.5 170t3 147.5t-4 181.5t-4.5 157q0 13 8.5 22t21 9t21.5 -8.5t9 -20.5q1 -41 3.5 -123.5t3.5 -123.5l70 79l57 64l54 59q20 22 25 28q8 10 20 11t22 -7t11 -20t-7 -22z" />
    <glyph glyph-name="L" unicode="L" horiz-adv-x="488" 
d="M84 684q6 -271 6 -448v-18q0 -15 -0.5 -38.5t-0.5 -43.5q-1 -40 0 -62v-12l2 -1q13 -4 35 -6q37 -5 106 -6q51 -1 118 1q71 1 73 1q12 0 21 -9t9 -21t-9 -21t-21 -9q-2 0 -73 -1q-68 -2 -119 -1q-71 1 -113 6q-27 3 -44 9q-25 7 -37 20q-2 3 -4 7t-2 6l-1 2v4q-1 4 -1 8
v22q-1 23 0 63q0 20 0.5 43.5t0.5 38.5v18q0 177 -6 446q0 13 8.5 22t21 9t21.5 -8.5t9 -20.5z" />
    <glyph glyph-name="M" unicode="M" horiz-adv-x="729" 
d="M498 584l-11 -23l-26 -61q-22 -53 -39 -89q-26 -57 -44 -89q-12 -20 -21 -32q-16 -20 -34 -23q-25 -3 -51 17q-19 14 -40 40q-33 42 -75 119l-37 69q3 -58 4.5 -128t1.5 -116.5t-0.5 -131.5t-0.5 -119q0 -12 -9 -21t-21 -9t-21 9t-9 21q0 35 0.5 123.5t0 135.5
t-1.5 119.5t-4.5 135t-9.5 123.5q-7 19 7 33q8 8 19 9q12 1 21 -6t12 -19q4 -9 22 -45l38 -78l40 -76q40 -73 70 -111q16 -20 29 -29l3 -3q7 8 15 23q17 29 41 83l40 91l26 61l24 52l17 33q5 8 8.5 12.5t7.5 7.5q19 16 39 0q10 -8 16 -26q3 -10 6 -26q5 -24 8 -65
q2 -28 4 -63q2 -37 3 -43q34 -325 132 -514q5 -11 1.5 -23t-14.5 -17.5t-23 -2t-18 14.5q-102 199 -138 536q0 6 -2.5 44t-4.5 63q0 8 -1 14z" />
    <glyph glyph-name="N" unicode="N" horiz-adv-x="556" 
d="M104 669l57 -127q42 -93 64 -137.5t62 -112.5t82 -120q20 -24 78 -86l4 -5l-4 25q-19 118 -20 122q-10 98 -13 169t7 162.5t39 168.5q4 12 15.5 17t23 1t16.5 -15.5t1 -22.5q-26 -72 -35 -156q-10 -84 -7.5 -153t13.5 -165q0 -1 20 -118q8 -48 11 -74q3 -16 4 -26v-10v-5
q0 -8 -4 -14q-10 -18 -30 -15q-6 1 -12 4q-4 2 -9 6q-7 5 -18 16l-46 47q-58 62 -80 89q-46 56 -86 125q-42 70 -67 122l-62 134q1 -96 -1 -271t-2 -232q0 -12 -9 -21t-21 -9t-21 9t-9 21q0 67 2 203.5t1.5 243.5t-5.5 203q-1 13 7.5 22t20.5 10q11 1 19 -5t12 -16z" />
    <glyph glyph-name="O" unicode="O" 
d="M253 648q-36 -6 -39 -7q-54 -21 -92 -116q-40 -95 -42 -211q-2 -119 39 -195q43 -78 124 -80q70 -2 113 77t46 200q2 122 -37 216q-41 95 -107 114q-3 1 -5 2zM272 704h2q94 -27 146 -149q44 -106 42 -240q-3 -136 -53 -228q-61 -111 -168 -108q-115 3 -175 112
q-48 89 -46 224q2 127 46 233q49 118 126 149q9 3 20.5 5.5t24 4t13.5 1.5q12 3 22 -4z" />
    <glyph glyph-name="P" unicode="P" horiz-adv-x="500" 
d="M108 355q98 3 163 34q35 17 69 49t52 68q40 79 -25 131q-57 45 -142 -1q-36 -19 -67.5 -49t-49.5 -61q1 -74 0 -171zM48 539q-2 66 -5 125q-1 13 7.5 22t21 10t21.5 -7.5t10 -20.5l2 -49q42 44 91 70q34 18 67.5 25.5t71.5 1t70 -32.5q36 -28 50.5 -64.5t11 -71
t-21.5 -68.5q-23 -46 -64 -85t-84 -59q-79 -37 -189 -40q-3 -247 -3 -281q0 -12 -9 -21t-21 -9t-21 9t-9 21q0 55 2.5 234.5t0.5 277.5q-2 6 0 13z" />
    <glyph glyph-name="Q" unicode="Q" horiz-adv-x="568" 
d="M305 54q-51 49 -96 118q-7 10 -4.5 22t13 19t22.5 4.5t19 -13.5q43 -64 90 -109l2 2q43 59 58 155q15 97 -12 204q-27 109 -90 161q-9 7 -20 13t-16 8.5t-23 9t-22 7.5q-18 -3 -25 -7q-57 -30 -95 -125t-39 -206q-1 -117 40 -193.5t117 -85.5q45 -6 81 16zM352 13
q-59 -44 -136 -35q-56 7 -98 39t-65.5 81t-34.5 104t-11 115q1 123 45 233.5t121 151.5q10 5 25 9q14 14 33 7q21 6 33 -12q52 -19 81 -43q41 -33 70 -87t41.5 -110.5t17 -117t-4.5 -106.5q-17 -109 -70 -180l-4 -6q54 -40 118 -62q11 -4 16.5 -15t1.5 -22.5t-15 -17
t-23 -1.5q-77 26 -141 75z" />
    <glyph glyph-name="R" unicode="R" horiz-adv-x="577" 
d="M108 342q85 25 164 76q103 68 112 133q7 48 -41 74q-51 26 -106 14q-55 -13 -130 -74q2 -94 1 -223zM145 291q-20 -7 -37 -11q-3 -218 -3 -266q0 -12 -9 -21t-21 -9t-21 9t-9 21q0 67 2 203.5t1.5 243.5t-5.5 203q-1 13 7.5 22t21 10t21.5 -7.5t10 -20.5q1 -14 1 -29
q62 45 119 58q34 8 74 3q41 -5 74 -22q37 -20 58 -54.5t15 -80.5q-13 -92 -139 -175q-44 -29 -96 -52l102 -87l122 -107l100 -89q9 -9 10 -21t-7.5 -21.5t-20.5 -10.5t-22 7l-106 95l-132 117z" />
    <glyph glyph-name="S" unicode="S" horiz-adv-x="471" 
d="M360 532q-9 65 -48 92.5t-90 21.5q-48 -6 -78 -34q-29 -27 -23 -58q5 -23 54 -59l57 -39q40 -27 62 -44q20 -14 36 -28t33.5 -32.5t30 -37t23 -41t15.5 -46.5t4 -52t-8 -58q-12 -48 -47 -80.5t-82 -46.5q-43 -14 -92.5 -8t-87.5 33q-94 68 -94 230q0 12 9 21t21 9t21 -9
t9 -21q0 -132 70 -182q24 -18 59 -22q34 -4 67 6q34 10 57 32q24 22 32 52q18 73 -12.5 127.5t-99.5 105.5q-22 17 -62.5 44t-55.5 39q-69 50 -77 95q-13 64 40 113q45 43 113 50q45 6 86.5 -8t74.5 -55q33 -40 43 -102q2 -12 -5.5 -22t-20 -12t-22.5 5.5t-12 20.5z" />
    <glyph glyph-name="T" unicode="T" horiz-adv-x="473" 
d="M7 681q41 0 81.5 1.5t90 5t77.5 6.5l90 8q63 6 81 8q13 1 22.5 -7t10.5 -20.5t-7 -22t-20 -10.5q-191 -18 -193 -18q4 -92 4.5 -195t-1.5 -233.5t-2 -195.5q0 -12 -9 -21t-21 -9t-21 9t-9 21q0 66 2 194.5t1.5 231t-4.5 194.5q-96 -7 -173 -7q-12 0 -21 9t-9 21t9 21
t21 9z" />
    <glyph glyph-name="U" unicode="U" horiz-adv-x="479" 
d="M97 667q-1 -91 -3 -170t8 -168q10 -88 34 -161q18 -55 40 -88q29 -41 59 -36q42 6 74 74q31 66 50 180q21 128 27 354q0 12 9 20.5t21.5 8.5t21 -9t8.5 -22q-6 -228 -28 -362q-20 -124 -54 -196q-47 -97 -121 -108q-66 -9 -116 62q-28 40 -49 104q-25 77 -35.5 172
t-8.5 176t3 171q0 12 9 20.5t21.5 8.5t21 -9t8.5 -22z" />
    <glyph glyph-name="V" unicode="V" horiz-adv-x="500" 
d="M67 663q55 -241 130 -488q1 -4 3 -13t6 -23t7 -26q13 55 36 130q78 252 185 450q5 11 17 14.5t23 -2t14.5 -17.5t-2.5 -23q-101 -191 -179 -440q-33 -107 -47 -176v-2l1 -5v-10q1 -33 -24 -45q-24 -12 -43 10q-7 8 -13 21q-8 19 -18 52q-7 22 -15 53.5t-9 33.5
q-75 250 -130 492q-3 12 3.5 22.5t18.5 13.5t22.5 -3.5t13.5 -18.5z" />
    <glyph glyph-name="W" unicode="W" horiz-adv-x="753" 
d="M51 645q43 -134 108 -446l14 -67q42 135 105 280l27 58q12 24 20 37q6 10 11 15q6 6 12 9q17 8 32 -3l9 -8q0 -2 1 -3t1 -3l2 -4l4 -12l13 -39l39 -120q60 -185 64 -195q2 -5 22 -62l2 -5l17 90l15 79l14 74q5 27 7 36q8 36 20.5 80t20.5 70l28 83l23 72q4 12 15 17.5
t23 2t17.5 -14.5t2.5 -23q-7 -19 -25 -72l-26 -80l-20 -69q-13 -43 -21 -80q-2 -8 -7 -35l-14 -73l-14 -78q-14 -74 -23 -116q-5 -26 -9 -41q-6 -21 -10 -28q-8 -14 -23 -16q-16 -3 -28 9q-6 6 -11 17q-1 4 -4 12q-2 6 -2 7q-11 24 -25 62l-21 60q-6 15 -65 198l-37 115
q-10 -20 -21 -47q-66 -151 -108 -291q-1 -1 -3 -9l-6 -20q-3 -13 -6 -22l-9 -32l-3 -11q-1 -2 -1.5 -3.5t-0.5 -3.5q-1 -1 -2 -3q-2 -5 -9 -10q-19 -12 -36 2q-6 4 -9 11q-2 4 -3.5 9.5t-4.5 18.5l-10 58l-22 105q-64 305 -108 440q-3 12 2.5 23t17.5 14.5t23 -2t15 -17.5z
" />
    <glyph glyph-name="X" unicode="X" horiz-adv-x="526" 
d="M237 304l-171 -320q-6 -11 -18 -14.5t-23 2t-14.5 17.5t1.5 23q125 238 191 352q-87 158 -135 290q-4 11 1 22.5t16.5 15.5t23 -1t15.5 -17q42 -116 114 -249l71 116l28 46l38 61q17 25 35 46q8 10 20.5 11t22 -7t10.5 -20.5t-7 -21.5q-16 -20 -31 -42l-36 -57l-30 -48
l-88 -145l219 -371q6 -11 3 -23t-14 -18t-23 -3t-18 14l-103 176z" />
    <glyph glyph-name="Y" unicode="Y" horiz-adv-x="455" 
d="M73 705l5 -23l8 -36l7 -38q17 -80 33 -134q21 -75 44 -117q22 -40 38 -41q15 -1 41 37q27 39 57 116q39 100 71 228q3 12 13.5 18.5t22.5 3.5t18.5 -13.5t3.5 -22.5q-34 -135 -73 -236q-32 -82 -63 -128q-28 -41 -57 -55q0 -45 -3.5 -130t-4.5 -124q0 -13 -9 -21.5
t-21.5 -8.5t-21 9t-8.5 21q1 40 4 123.5t4 127.5q-36 14 -65 67q-26 47 -49 129q-16 57 -33 139q-4 15 -8 37t-7 35l-5 23q-3 12 3.5 22.5t18.5 13.5t22.5 -3.5t13.5 -18.5z" />
    <glyph glyph-name="Z" unicode="Z" horiz-adv-x="575" 
d="M124 694h68q68 1 116 1q70 0 110 -1q25 -1 39 -3q8 -1 14 -2q4 -1 7 -2q10 -4 15 -11q7 -9 6 -20q0 -4 -1 -8t-3 -8q-3 -6 -8 -15q-8 -12 -23 -35l-34 -50l-81 -117q69 -1 125 -10q12 -2 19.5 -12.5t5.5 -22.5t-12.5 -19.5t-22.5 -5.5q-67 12 -155 10q-52 -76 -95 -146
l-91 -150q11 1 25 3t22 3t10 1q199 21 344 2q12 -2 19.5 -12t6 -22t-11.5 -19.5t-22 -6.5q-138 19 -330 -2q-1 0 -10.5 -1t-24.5 -3t-27 -3q-25 -3 -39 -5q-9 -1 -14 -1h-6h-5q-4 1 -7 2q-12 5 -17 17q-10 24 12 47q7 6 9 7q0 1 1 1l104 174l72 111q-44 -2 -100 -8
q-12 -1 -22 7t-11 20t7 22t20 11q85 8 148 11l104 151l34 50l7 9l-5 1q-39 1 -108 1q-48 0 -116 -1h-68q-12 0 -21 9t-9 21t9 21t21 9z" />
    <glyph glyph-name="bracketleft" unicode="[" horiz-adv-x="358" 
d="M229 714q-5 0 -44 -3q-33 -1 -54 -4q-28 -4 -44 -10q-9 -4 -12 -7q-1 -7 -1 -20q-1 -20 0 -54q1 -57 6 -155l7 -108l6 -105q3 -41 3 -57q0 -1 0.5 -18t1 -38t0.5 -39q1 -36 3 -58q0 -12 1 -19v-2q5 -6 19 -11q21 -6 55 -9q26 -2 64 -1q9 0 28 0.5t26 0.5q12 0 21 -9
t9 -21t-9 -21t-21 -9q-7 0 -25.5 -0.5t-27.5 -0.5q-41 -1 -70 1q-42 3 -69 13q-41 14 -55 43q-3 6 -5 20q-1 8 -1 22q-2 22 -3 59q0 19 -0.5 39.5t-1 37.5t-0.5 18q0 17 -3 57l-6 104l-7 107q-5 101 -6 157q-1 34 0 58q1 28 5 39q10 27 46 41q22 9 58 14q24 3 59 5
q38 3 41 3q12 1 22 -7t11 -20t-7 -22t-20 -11z" />
    <glyph glyph-name="backslash" unicode="\" horiz-adv-x="482" 
d="M395 -15l-93 167l-102 180l-88 164q-51 97 -90 179q-5 11 -1 23t15 17t23 1t17 -15q39 -82 90 -179l88 -163l100 -179l93 -165q6 -11 2.5 -23t-14 -18t-22.5 -2.5t-18 13.5z" />
    <glyph glyph-name="bracketright" unicode="]" horiz-adv-x="358" 
d="M109 -2q3 0 44 3q32 2 54 5q28 4 43 10q9 4 12 7q1 6 2 23q0 20 -1 54q-1 56 -8 153q-2 40 -7 105l-8 106q-3 40 -3 58q-1 41 -3 95q-2 37 -3 58q-1 13 -1 19v2q-6 6 -20 11q-20 6 -54 9q-27 1 -65 0q-10 0 -28.5 -1t-24.5 -1q-13 0 -22 8.5t-9 21t8.5 21.5t20.5 9
q7 0 25 1t28 1q41 1 70 -1q43 -2 70 -12q41 -13 56 -42q2 -5 3 -12q1 -4 1 -9q1 -7 2 -21q1 -22 3 -59q2 -55 3 -96q0 -18 3 -58l8 -104l7 -105q7 -93 8 -155q1 -44 1 -58q-1 -28 -6 -41q-9 -27 -45 -42q-22 -9 -58 -14q-23 -4 -58 -6q-40 -3 -42 -3q-12 -1 -22 7t-11 20
t7 22t20 11z" />
    <glyph glyph-name="asciicircum" unicode="^" horiz-adv-x="325" 
d="M-13 547l50 87q21 36 34 55q8 13 15 20q4 5 8 8q8 8 18 10q17 3 36 -9q11 -7 24 -19q20 -20 48 -55l27 -38l26 -36l14 -20q7 -10 5.5 -22.5t-11.5 -19.5t-22.5 -5.5t-19.5 11.5q-3 4 -14 20l-25 36l-28 37q-25 32 -42 48l-6 6l-4 -6q-12 -18 -32 -51l-49 -87
q-6 -11 -18 -14t-23 3t-14 18t3 23z" />
    <glyph glyph-name="underscore" unicode="_" horiz-adv-x="443" 
d="M27 -91q208 25 353 25q12 0 21 -9t9 -21t-9 -21t-21 -9q-141 0 -345 -25q-13 -1 -22.5 6.5t-11 20t6 22t19.5 11.5z" />
    <glyph glyph-name="grave" unicode="`" horiz-adv-x="191" 
d="M62 771q63 -96 93 -162q5 -11 1 -22.5t-15.5 -16.5t-23 -1t-16.5 16q-28 60 -89 152q-7 11 -4.5 23t13 19t22.5 4.5t19 -12.5z" />
    <glyph glyph-name="a" unicode="a" horiz-adv-x="415" 
d="M291 158q-12 48 -27 68q-45 59 -98 56q-47 -3 -85 -49t-37 -97q0 -51 43 -75q58 -33 128 20q37 28 76 77zM45 413q57 81 138 90q99 10 151 -88q32 -61 43 -161q5 -47 5 -159v-62q0 -13 -1 -20q0 -5 -1 -9q-2 -7 -6 -12q-8 -12 -23 -12q-13 -1 -23 10q-7 8 -11 24
q-2 9 -5 25l-7 44q-27 -29 -54 -50q-101 -77 -194 -24q-39 22 -57.5 56.5t-16.5 71.5t15.5 72t36.5 62q55 66 127 71q85 5 150 -80l4 -6q-10 83 -35 131q-33 62 -92 56q-53 -6 -94 -64q-8 -10 -20 -12.5t-22 5t-12.5 19.5t4.5 22z" />
    <glyph glyph-name="b" unicode="b" horiz-adv-x="423" 
d="M19 27v2v1v1v1v10v7v7v5q0 31 3 52l1 2v4q1 15 2 111q3 210 -13 412q-1 13 7 22.5t20.5 10.5t22 -7t10.5 -20q13 -160 13 -347q13 27 26 51q42 76 87 111q63 48 126 17q57 -30 65 -110q4 -50 -12 -113q-33 -130 -118 -203q-86 -74 -216 -77q-13 0 -22 8.5t-9 20.5t7 21z
M79 40q93 12 153.5 71.5t86.5 159.5q13 53 10 94q-4 47 -33 61q-28 15 -61 -11q-34 -26 -71 -92q-31 -55 -52 -115q-22 -62 -30 -100q0 -5 -1.5 -20t-1.5 -23v-5v-10v-10z" />
    <glyph glyph-name="c" unicode="c" horiz-adv-x="390" 
d="M243 374q-13 49 -34 64q-14 9 -33 1q-24 -10 -48 -40t-36 -68q-19 -60 -17.5 -113.5t17 -93t39.5 -61.5q35 -31 77 -14q56 22 108 116q6 10 18 13.5t22.5 -2.5t14 -18t-2.5 -23q-62 -112 -138 -142t-138 25q-55 48 -72 139t14 192q16 48 48.5 89t70.5 57q50 20 90 -8
q40 -27 58 -99q3 -12 -3 -22.5t-18.5 -13.5t-23 3t-13.5 19z" />
    <glyph glyph-name="d" unicode="d" horiz-adv-x="404" 
d="M308 62q-2 11 -4.5 26.5t-3.5 18.5q-24 137 -81 248q-19 37 -43 56q-25 19 -52 10q-45 -16 -55 -83q-11 -71 20 -151q33 -82 90 -118q59 -38 129 -7zM377 654q-17 -222 -7 -433l6 -128q0 -1 0.5 -7t1.5 -16.5t2 -18.5q1 -18 2 -27v-10v-7q-1 -6 -4 -11q-6 -10 -17 -14
q-14 -4 -27 5q-8 6 -12 16q-94 -37 -176 15q-73 47 -113 148q-37 95 -24 181q7 46 30.5 81t64.5 49q58 20 109 -18q35 -27 60 -76q19 -38 34 -76q-4 170 10 351q1 13 10.5 21t22 7t20.5 -10.5t7 -21.5z" />
    <glyph glyph-name="e" unicode="e" horiz-adv-x="389" 
d="M71 190q61 11 110.5 54t72.5 103q13 35 5 65q-6 25 -32 25q-28 0 -60 -31t-57 -84q-34 -69 -39 -132zM78 130q16 -44 44 -65t61 -21q35 0 70 22q33 23 55 66q6 12 17.5 15.5t23 -2t15 -17t-1.5 -22.5q-29 -58 -77.5 -90.5t-102.5 -31.5q-56 1 -101 38t-65 104
q-11 47 0 106t40 117q30 62 74 105q44 42 97 43q37 1 59.5 -19t30.5 -50q13 -49 -7 -101q-28 -77 -90.5 -130t-141.5 -67z" />
    <glyph glyph-name="f" unicode="f" horiz-adv-x="400" 
d="M345 568q-6 39 -28.5 67t-48.5 35q-23 7 -39 -5q-22 -17 -31 -64q-10 -58 -5 -158q50 0 116 -2q13 0 21 -9.5t8 -22t-9.5 -20.5t-21.5 -8q-63 2 -110 2q0 -15 1 -27q2 -34 4.5 -107.5t5 -129.5t7.5 -108q1 -13 -7 -22.5t-20.5 -10.5t-22 7t-10.5 20q-5 53 -7.5 109
t-5 130.5t-4.5 109.5q-1 12 -2 28q-56 -2 -108 -8q-12 -1 -21.5 6.5t-11 20t6 22t20.5 11.5q53 6 111 8q-6 105 7 171q12 69 53 100q40 30 91 15q44 -13 78 -54.5t43 -95.5q2 -13 -5.5 -23t-20 -12t-22.5 5.5t-12 19.5z" />
    <glyph glyph-name="g" unicode="g" horiz-adv-x="382" 
d="M301 424h-1l-6 7q-5 5 -7 6q-29 13 -71 -17q-45 -32 -84 -98q-39 -65 -52 -128q-13 -62 6 -92q16 -24 44 -19q44 6 80 63q26 39 53 114q24 69 32 115q3 17 5 43zM305 203q-21 -54 -44 -90q-52 -79 -123 -90q-30 -4 -57.5 8.5t-44.5 38.5q-33 50 -15 136q15 73 59 147
q46 77 101 116q70 50 130 22q13 -5 25 -18l6 -6h1q11 -4 16 -15q1 -2 2 -6q1 -2 1.5 -4.5t0.5 -6.5v-18q1 -10 1 -52q1 -102 1 -114q2 -108 -9 -192q-18 -141 -74 -189q-27 -23 -57 -33t-56.5 -9t-56.5 3q-13 1 -20.5 11t-6.5 22.5t11 20t22 6.5q40 -6 69.5 -1.5t54.5 26.5
q39 33 55 151q8 60 8 136z" />
    <glyph glyph-name="h" unicode="h" horiz-adv-x="417" 
d="M86 287q17 34 36 63q34 55 68 86q46 42 89 38q58 -5 83 -81q18 -51 20 -139q3 -106 -15 -244q-2 -12 -11.5 -19.5t-22 -6t-20 11t-6.5 22.5q17 135 15 234q-2 78 -16 122q-13 38 -33 40q-16 2 -42 -23q-28 -25 -59 -73q-26 -42 -46.5 -86.5t-26.5 -68.5q-6 -28 -10 -119
v-2q0 -2 1 -6t2 -9q1 -13 -1 -21q-4 -16 -19 -22q-13 -6 -27 1q-9 5 -14 13l-2 6q-1 3 -1 6q-1 2 -1 6v16v45q1 87 1 96q-1 102 -10 297l-11 217q0 12 8 21t20.5 9.5t21.5 -7.5t10 -21q2 -58 9 -193.5t10 -208.5z" />
    <glyph glyph-name="i" unicode="i" horiz-adv-x="137" 
d="M80 432q-6 -51 -7 -103.5t3.5 -108t10.5 -100t16 -109.5q2 -13 -5.5 -23t-20 -12t-22.5 5.5t-12 19.5q-10 67 -15.5 111.5t-10.5 103t-4 114t7 110.5q2 12 11.5 19.5t22 6t20 -11t6.5 -22.5zM87 574q0 -12 -9 -21t-21 -9t-21 9t-9 21t9 21t21 9t21 -9t9 -21z" />
    <glyph glyph-name="j" unicode="j" horiz-adv-x="154" 
d="M116 466q17 -137 9 -309q-4 -100 -19 -170q-18 -87 -52 -127q-29 -34 -62 -45t-78 -10q-12 0 -20.5 9t-8.5 21.5t9 21t22 8.5q35 -1 54.5 5.5t37.5 27.5q24 29 39 101q14 67 19 161q7 163 -10 298q-1 13 6.5 22.5t20 11t22 -6t11.5 -19.5zM112 618q0 -12 -9 -21t-21 -9
t-21 9t-9 21t9 21t21 9t21 -9t9 -21z" />
    <glyph glyph-name="k" unicode="k" horiz-adv-x="443" 
d="M313 454q-15 -23 -123 -147l-69 -79l-22 -26l-1 -2q5 -11 24 -27q31 -25 89 -54q49 -24 100.5 -43.5t74.5 -24.5q12 -2 18.5 -12.5t4 -23t-13 -19t-23.5 -3.5q-26 6 -81 26.5t-106 45.5q-64 32 -101 61l-2 2q-2 -57 -7 -116q-1 -12 -10.5 -20t-22 -7t-20.5 10.5t-7 22.5
q9 98 11 197.5t0 255.5t-2 199q0 12 9 21t21 9t21 -9t9 -21q0 -52 1.5 -185t0.5 -206l59 68q107 123 116 139q7 10 19 13t22.5 -3.5t13.5 -18.5t-3 -23z" />
    <glyph glyph-name="l" unicode="l" horiz-adv-x="155" 
d="M104 671q-19 -101 -26.5 -215.5t3.5 -238t45 -205.5q4 -11 -0.5 -22.5t-16 -16t-23 0t-16.5 16.5q-36 89 -48 221t-4 249.5t28 222.5q2 12 12 19t22.5 4.5t19.5 -12.5t4 -23z" />
    <glyph glyph-name="m" unicode="m" horiz-adv-x="622" 
d="M236 110q-1 97 -9 164q-9 66 -25 96q-7 12 -13 16q-3 1 -9 -1q-9 -3 -25 -31q-16 -30 -34 -78q-34 -93 -39 -146q-3 -24 1 -78q1 -24 1 -32q0 -10 -2 -16q-6 -16 -21 -20q-18 -5 -31 8q-8 7 -8 13q0 1 -1 3v2v1v1v4q0 5 -1 14l-2 47l-5 145q-8 232 -8 240q0 12 9 21t21 9
t21 -9t9 -21q0 -19 5 -152q16 43 33 73q27 47 55 58q32 12 59 -2q22 -12 38 -41q20 -38 30 -112q24 53 50 95q36 58 71 87q50 42 98 24q47 -18 66 -93q14 -52 17 -140q2 -42 -1 -145q-2 -81 0 -101q1 -12 -7 -21.5t-20.5 -10.5t-22 7t-10.5 21q-2 24 0 107q2 104 1 141
q-2 81 -14.5 126.5t-30.5 52.5q-14 5 -38 -14q-27 -23 -58 -73q-25 -41 -46 -88q-21 -46 -29 -73q-11 -36 -16 -84v-18v-13v-7l-2 -6q-2 -6 -7 -10q-14 -14 -32 -7q-10 4 -15 13q-2 3 -3 6q0 2 -1 4v3v1v1v9q-1 18 0 25q0 3 1 5z" />
    <glyph glyph-name="n" unicode="n" horiz-adv-x="427" 
d="M19 50q1 68 0 98q-1 31 -1.5 100.5t-3 119.5t-9.5 97q-1 12 6 22t19.5 11.5t22.5 -5.5t12 -20q10 -75 12 -207q26 54 62 107q33 47 73 75q30 21 58 24q39 4 66 -26q23 -25 36 -89q10 -47 15 -122q6 -84 6 -217q0 -12 -9 -21t-21 -9t-21 9t-9 21q0 136 -5 213
q-5 70 -14 114q-10 48 -22 61q-7 7 -16 6q-12 -1 -29 -13q-32 -22 -58 -60q-101 -146 -110 -292q0 -28 -1 -38v-4v-1v-1q0 -3 -2 -7q-2 -7 -7 -12q-10 -9 -23 -8q-12 1 -20 10q-5 5 -7 11q0 2 -0.5 3.5t-0.5 3.5v13q0 16 1 33z" />
    <glyph glyph-name="o" unicode="o" horiz-adv-x="374" 
d="M182 432q-6 -1 -11 -1q-1 0 -5 -0.5t-6 -0.5q-7 -1 -10 -3q-32 -16 -58 -76q-27 -63 -31 -134q-4 -76 21 -122t76 -50q65 -5 102 46q35 50 34 130q-1 71 -31 129.5t-81 81.5zM126 482q4 11 13.5 16t19.5 4q63 -12 108 -57.5t65 -102.5q21 -58 22 -120q2 -100 -46 -166
q-56 -78 -154 -71q-45 4 -77 26t-48.5 57t-23 73t-4.5 79q5 82 36 155q35 79 85 106q2 1 4 1z" />
    <glyph glyph-name="p" unicode="p" horiz-adv-x="396" 
d="M91 271q-4 -138 -4 -222q42 -3 70.5 2t53.5 23q33 24 57 72t32 105q8 58 -5 105t-46 71q-21 16 -42 9q-23 -7 -47 -36q-23 -26 -41 -62t-26 -63zM88 -11q1 -74 5 -140q1 -13 -7.5 -22t-21 -10t-21.5 7.5t-10 20.5q-4 73 -5 160.5t0.5 151t4.5 164.5t4 154q0 12 9 20.5
t21.5 8.5t21 -9t8.5 -22q-1 -26 -1 -57l18 23q36 42 74 54q51 16 97 -18q49 -36 66.5 -99t8.5 -133q-9 -66 -39 -125.5t-74 -91.5q-61 -44 -159 -37z" />
    <glyph glyph-name="q" unicode="q" horiz-adv-x="372" 
d="M289 435l3 37q1 13 10.5 21t22 7t20.5 -10.5t7 -21.5q-14 -202 -19 -302q2 -8 0 -16q-7 -165 0 -297q1 -13 -7.5 -22t-21 -10t-21.5 7.5t-10 20.5q-5 94 -3 201q-36 -37 -76.5 -51t-80.5 -2q-61 19 -89 87.5t-13 163.5q13 75 50 140t85 91q62 33 114 -11q16 -13 29 -33z
M277 305q-21 89 -55 117q-21 18 -48 4q-33 -18 -63 -70t-40 -118q-13 -81 6 -126q20 -47 53 -58q32 -9 72 16t71 93q3 61 7 134q-2 4 -3 8z" />
    <glyph glyph-name="r" unicode="r" horiz-adv-x="337" 
d="M72 440q5 -52 6 -131v-38q64 151 179 225q10 7 22 4.5t19 -13t4.5 -22.5t-13.5 -19q-78 -51 -128 -141.5t-71 -200.5q-1 -10 -1 -38q0 -34 -5 -53q-1 -3 -2 -5q-1 -3 -2 -5q-5 -8 -13 -11q-18 -10 -34 5q-5 5 -8 12q-1 4 -1 8q-1 4 -1 15q1 26 1 28q-5 110 -5 119
q0 14 -1 129q-1 77 -6 126q-1 13 7 22.5t20.5 10.5t22 -7t10.5 -20z" />
    <glyph glyph-name="s" unicode="s" horiz-adv-x="323" 
d="M217 354q0 1 -7 35q-3 16 -7 24q-9 15 -28.5 21.5t-42.5 1.5q-22 -5 -33.5 -18.5t-9.5 -32.5t32 -51q13 -14 41 -40q28 -25 34 -31q15 -14 26 -26t24.5 -28.5t21.5 -33t14.5 -35t6 -39.5t-6.5 -42q-17 -56 -65.5 -76t-99.5 -4q-51 15 -86.5 59.5t-35.5 107.5q0 12 9 21
t21 9t21 -9t9 -21q0 -42 23 -71t56 -39q32 -9 57 1.5t33 39.5q11 34 -7 67.5t-62 75.5q-5 4 -35 32l-42 40q-44 47 -49 87q-5 45 22.5 75.5t67.5 39.5q39 9 77 -4q39 -12 59 -49q9 -15 14 -40q0 -1 2 -13t4 -18q3 -12 -3 -23t-18 -14t-23 3t-14 18z" />
    <glyph glyph-name="t" unicode="t" horiz-adv-x="337" 
d="M108 455q-45 -2 -104 -5q-12 -1 -21 7.5t-10 21t7.5 21.5t21.5 10q63 3 111 6q7 84 22 160q2 12 12 19t22.5 4.5t19.5 -12.5t4 -23q-12 -68 -20 -145q62 4 116 9q13 1 22.5 -7t10.5 -20.5t-7 -22t-20 -10.5q-61 -5 -127 -9q-19 -293 47 -454q4 -11 -0.5 -22.5t-16 -16
t-23 0t-16.5 16.5q-70 171 -51 472z" />
    <glyph glyph-name="u" unicode="u" horiz-adv-x="417" 
d="M90 466q-19 -130 -11 -251q6 -82 25 -128q19 -45 50 -48q18 -2 37 25q22 30 39 91q24 86 34 197q2 16 3.5 41.5t1.5 26.5q2 16 3 23t2 11q1 5 4 8q8 13 22 15q15 2 26 -10q3 -3 5 -7q1 -2 2 -5q0 -1 1 -3v-1v-2q0 -2 1 -6q0 -9 2 -23l8 -106q11 -148 45 -292
q3 -12 -3.5 -22.5t-18.5 -13.5t-22.5 3.5t-13.5 18.5q-21 88 -33 174q-5 -23 -11 -43q-20 -71 -47 -110q-40 -56 -95 -50q-64 8 -97 85q-23 55 -30 147q-9 127 11 263q2 13 12 20t22.5 5.5t19.5 -11.5t6 -22z" />
    <glyph glyph-name="v" unicode="v" horiz-adv-x="428" 
d="M38 479q53 -104 124 -310l29 -87l3 -8l2 5q14 32 56 145q87 232 101 259q6 11 18 14.5t23 -2t14.5 -17.5t-1.5 -23q-13 -24 -99 -252l-56 -147q-13 -32 -22 -49q-5 -11 -9 -17q-9 -13 -20 -18q-15 -6 -28 3q-4 3 -7 7q-2 2 -4 5q-1 3 -3 7l-6 18l-18 51l-29 86
q-71 202 -122 302q-5 11 -1.5 23t14.5 17.5t23 2t18 -14.5z" />
    <glyph glyph-name="w" unicode="w" horiz-adv-x="657" 
d="M58 460q13 -51 39 -165t42 -173l1 -4l20 71q22 77 37 115q10 27 20 41q8 11 16 17q16 11 33 6q12 -3 21 -15q5 -6 10 -15q8 -15 19 -41l45 -112q32 -81 45 -110l5 -10l8 32q57 180 149 385q5 12 16.5 16t23 -1t15.5 -16.5t-1 -22.5q-90 -202 -145 -379q-4 -10 -8 -29
q-5 -21 -7 -28q-6 -17 -12 -27q-17 -24 -43 -17q-11 3 -21 14q-6 6 -12 16q-10 14 -22 41q-17 37 -47 114q-33 85 -44 111l-6 14l-3 -6q-14 -35 -35 -109l-14 -53q-12 -43 -18 -61q-8 -27 -13 -40q-4 -10 -8 -15.5t-9 -9.5q-12 -9 -26 -6q-10 2 -16 9q-2 2 -4 5q-1 1 -2 3
q0 2 -0.5 3.5t-1.5 3.5q-1 3 -2 9l-7 26l-15 59q-16 60 -42 174t-39 166q-3 12 3 22.5t18.5 13.5t23 -3t13.5 -19z" />
    <glyph glyph-name="x" unicode="x" horiz-adv-x="360" 
d="M157 175l-110 -184q-6 -11 -18 -14t-23 3t-14 18t3 23l128 214q-66 119 -108 217q-4 12 0.5 23.5t16 16t23 0t16.5 -15.5q35 -84 88 -181l110 184q7 11 19 14t22.5 -3.5t13.5 -18.5t-3 -22l-129 -215l132 -224q6 -11 3 -23t-14 -18t-23 -3t-18 14z" />
    <glyph glyph-name="y" unicode="y" horiz-adv-x="400" 
d="M382 469q-33 -147 -114 -344q-96 -236 -175 -308q-9 -9 -21.5 -8t-21 10t-7.5 21.5t10 20.5q47 43 108 169q-30 76 -80 219.5t-73 204.5q-4 12 1 23.5t16.5 15.5t23 -1t15.5 -16q24 -63 66.5 -186.5t65.5 -183.5l17 41q79 194 111 336q2 12 12.5 18.5t23 4t19 -13
t3.5 -23.5z" />
    <glyph glyph-name="z" unicode="z" horiz-adv-x="395" 
d="M58 486q47 -1 71 -1h4h3h2h1h1h4q12 -1 50 -2h12q10 0 24 -0.5t27 -0.5q25 -1 39 -2q10 -1 16 -2q5 -1 9 -2q10 -4 16 -12q7 -9 6 -20q0 -4 -1 -8q-1 -3 -3 -7q-2 -5 -7 -11q-6 -11 -20 -31l-65 -92l-7 -10q21 -2 40 -6q12 -2 19 -12.5t4.5 -22.5t-13 -19t-22.5 -4
q-32 6 -69 7q-60 -84 -74 -105q-2 -2 -9 -11.5t-17 -24.5t-19 -27l-10 -14q33 0 95 2q161 6 170 6q12 0 20.5 -9.5t8.5 -21.5t-9.5 -20.5t-21.5 -8.5q-7 0 -166 -6q-65 -2 -99 -2q-22 -1 -34 0q-8 0 -13 1q-4 1 -7 2q-10 2 -16 9q-10 13 -6 29q1 5 3 10q3 7 9 17q9 15 27 40
l19 26l17 25q7 10 8 12l47 67q-12 -1 -35 -4q-12 -1 -22 6.5t-11 20t6.5 22.5t20.5 11q58 6 87 7l30 43l64 91q-5 1 -7 1q-13 0 -27 0.5t-24 0.5h-12q-42 1 -54 2h-4h-1h-1h-3q-25 0 -71 1q-13 0 -21.5 9t-8.5 21.5t9 21t21 8.5z" />
    <glyph glyph-name="braceleft" unicode="{" horiz-adv-x="400" 
d="M325 677q-53 21 -101 -3.5t-56 -81.5q-3 -16 4 -65q8 -56 -1 -86q-20 -69 -84 -105q45 -26 59 -69q9 -29 9 -77q0 -47 3 -63q13 -75 58 -97q42 -21 123 -5q12 3 22.5 -4t13 -19t-4.5 -22.5t-19 -12.5q-102 -21 -162 9q-72 36 -91 141q-3 21 -3 73q0 39 -7 59
q-6 22 -35 37l-16 8l-10 4q-9 4 -14 8q-11 8 -16 19q-10 24 13 40q5 4 15 8q25 11 32 15q43 24 56 69q5 19 0 61q-9 58 -5 84q7 43 31.5 76.5t57.5 49t73 18.5t77 -13q12 -5 16.5 -16t0 -23t-15.5 -16.5t-23 -0.5z" />
    <glyph glyph-name="bar" unicode="|" horiz-adv-x="590" 
d="M299 347q18 56 40 95q29 51 70 77.5t95 6.5q33 -12 52 -45q38 -66 -18 -191q-34 -75 -91 -155l-10 -15l-21 -33q-13 -21 -23 -32q-7 -9 -12 -13q-15 -13 -31 -11q-7 2 -16 7q-4 2 -10 7q-8 6 -21 17l-32 30l-27 23q-20 17 -35 31l-37 35q-21 21 -37 39q-96 109 -71 189
q12 35 52 48q74 23 143 -55q20 -23 40 -55z" />
    <glyph glyph-name="braceright" unicode="}" horiz-adv-x="393" 
d="M35 39q53 -21 100.5 4.5t55.5 81.5q3 17 -5 66q-8 55 0 86q17 60 79 102l5 3q-46 26 -60 69q-9 29 -10 76.5t-3 62.5q-15 75 -60 97q-42 21 -123 4q-12 -3 -22.5 4t-13 19t4.5 22.5t19 12.5q101 22 162 -8q72 -35 91 -139q4 -19 5 -74q1 -39 8 -59q7 -22 35 -36
q6 -3 15.5 -7t10.5 -5q23 -11 30 -27q6 -15 -4 -29q-3 -4 -7 -7q-2 -2 -6 -4q-1 -1 -12 -6q-18 -9 -31 -18q-44 -31 -55 -69q-5 -18 1 -61q9 -58 6 -83q-6 -44 -30.5 -77t-57.5 -49.5t-73 -20t-77 12.5q-12 5 -16.5 16t0 23t15.5 16.5t23 0.5z" />
    <glyph glyph-name="asciitilde" unicode="~" horiz-adv-x="435" 
d="M-11 525q35 60 66 85q28 23 57 26q36 3 68 -26q10 -8 35 -44q18 -26 24 -30q24 -15 55 1q30 16 55 49q7 11 19 13t22.5 -5.5t12.5 -19.5t-6 -22q-32 -46 -75 -68q-62 -32 -115 2q-16 10 -41 45q-21 30 -26 35q-13 11 -23 10q-11 -1 -24 -12q-22 -19 -52 -69
q-6 -11 -18.5 -14t-23 3t-13.5 18.5t3 22.5z" />
    <glyph glyph-name="exclamdown" unicode="&#xa1;" horiz-adv-x="145" 
d="M93 573q-1 -23 -4 -127t-3 -146.5t5.5 -118t17.5 -135.5q3 -12 -4 -22.5t-19 -13t-22.5 4.5t-12.5 19q-14 62 -19.5 141.5t-5.5 123.5t3.5 149.5t3.5 126.5q0 12 9 20.5t21.5 8.5t21 -9t8.5 -22zM94 666q0 -12 -9 -21t-21 -9t-21 9t-9 21t9 21t21 9t21 -9t9 -21z" />
    <glyph glyph-name="cent" unicode="&#xa2;" horiz-adv-x="352" 
d="M209 298q2 55 -12.5 86.5t-31.5 36.5q-9 3 -20 -0.5t-29.5 -25t-34.5 -59.5q-20 -49 -22 -96.5t9.5 -79.5t32.5 -51q29 -26 68 -13q52 16 104 93q7 10 19.5 12.5t22.5 -4.5t12.5 -19.5t-4.5 -22.5q-63 -93 -135 -116t-127 25q-50 44 -60.5 125t24.5 169q28 68 70 102
t89 18q43 -14 65 -64t20 -118q0 -12 -9.5 -20.5t-21.5 -8.5t-20.5 9.5t-8.5 21.5zM195 -31q0 -12 -9 -21t-21 -9t-21 9t-9 21t9 21t21 9t21 -9t9 -21zM181 533q0 -12 -9 -21t-21 -9t-21 9t-9 21t9 21t21 9t21 -9t9 -21z" />
    <glyph glyph-name="sterling" unicode="&#xa3;" horiz-adv-x="519" 
d="M-24 358q57 48 132 39l6 21q3 14 11 48l13 55q5 21 16 51q11 29 24 51q21 36 54.5 61t70.5 30q43 6 75 -18q33 -26 44 -79q3 -12 -3.5 -22.5t-19 -13t-23 4t-12.5 19.5q-7 31 -23 43q-12 9 -30 6q-21 -2 -43.5 -19t-37.5 -42q-11 -19 -20 -44t-14 -43.5t-12 -51.5
t-12 -50l-5 -20q33 -9 47.5 -12t37 -2.5t41.5 8.5q12 4 23.5 -0.5t16 -16t0 -23t-15.5 -16.5q-28 -12 -62 -12.5t-51.5 3.5t-51.5 13q-28 -112 -46 -176l-13 -45q10 6 19 10q51 22 95 2q14 -6 31 -18q18 -14 23 -16q67 -41 99 -26q26 13 69 88q6 11 18 14t23 -3t14 -18
t-3 -23q-17 -29 -28.5 -46.5t-29.5 -36.5t-37 -29q-61 -29 -157 28q-6 4 -26 19q-13 9 -20 13q-20 9 -47 -3q-21 -9 -53 -35q-1 -1 -2 -3t-3 -5.5t-3 -4.5q-7 -11 -13 -15q-14 -12 -31 -5q-15 5 -20 21l-1 16q1 2 2 6q1 6 4 16q3 12 12 44l20 71l46 172q-45 3 -80 -26
q-9 -8 -21.5 -7t-20.5 10.5t-7 22t11 20.5z" />
    <glyph glyph-name="currency" unicode="&#xa4;" horiz-adv-x="513" 
d="M113 415q-36 31 -69 67q-8 9 -7.5 21.5t9.5 20.5t21.5 7.5t20.5 -9.5q30 -32 63 -61q31 26 71 34q9 10 23 9q49 -3 87 -22l65 69q9 9 21.5 9t21.5 -8.5t9 -21t-8 -21.5l-61 -63q46 -51 40 -125q-4 -44 -28 -84l79 -81q8 -9 8 -21.5t-9 -21t-21.5 -8.5t-21.5 9l-75 78
q-47 -40 -111 -42t-106 36q-26 -27 -81 -74q-9 -8 -21.5 -7t-20.5 10.5t-7 22t11 20.5q58 49 83 78q-16 37 -14 82q2 52 28 97zM247 438q-45 -4 -73 -39.5t-30 -83.5q-1 -46 22 -76q25 -31 73 -29q50 2 83.5 36t37.5 81q4 42 -20.5 74.5t-80.5 40.5q-6 -3 -12 -4z" />
    <glyph glyph-name="yen" unicode="&#xa5;" horiz-adv-x="579" 
d="M311 384l-107 -9l9 -18q22 -40 38 -41q15 -1 41 37q10 13 19 31zM116 705l5 -23l8 -36l7 -38q17 -80 33 -134q6 -22 12 -41q90 8 159 13l9 23q38 98 71 228q3 12 13.5 18.5t22.5 3.5t18.5 -13.5t3.5 -22.5q-33 -134 -72 -233q57 2 109 2q12 0 21 -9t9 -21t-9 -21t-21 -9
q-64 0 -135 -4q-19 -41 -38 -69q-26 -38 -53 -53q92 8 187 8q12 0 21 -9t9 -21t-9 -21t-21 -9q-98 0 -192 -9q-1 -19 -3.5 -88.5t-3.5 -106.5q0 -13 -9 -21.5t-21.5 -8.5t-21 9t-8.5 21q1 38 3.5 107t3.5 82q-77 -9 -153 -24q-12 -3 -22.5 4t-13 19t4.5 22.5t19 12.5
q83 17 166 27v1q-36 14 -65 67l-19 40l-128 -13q-12 -1 -22 7t-11 20t7 22t20 11l113 12l-9 30q-16 57 -33 139q-4 15 -8 37t-7 35l-5 23q-3 12 3.5 22.5t18.5 13.5t22.5 -3.5t13.5 -18.5z" />
    <glyph glyph-name="brokenbar" unicode="&#xa6;" horiz-adv-x="249" 
d="M215 661q0 -44 -3 -127t-3 -102q0 -12 -9 -20.5t-21.5 -8.5t-21 9t-8.5 22q0 18 3 100.5t3 126.5q0 12 9 21t21 9t21 -9t9 -21zM207 220q2 -37 2.5 -76t0 -97.5t-0.5 -75.5q0 -12 -9 -21t-21 -9t-21 9t-9 21q0 18 0.5 75t0 95t-2.5 75q-1 13 7.5 22t21 10t21.5 -7.5
t10 -20.5z" />
    <glyph glyph-name="section" unicode="&#xa7;" horiz-adv-x="321" 
d="M139 408q-35 -8 -52 -25q-7 -7 -7 -14q0 -10 13 -26q14 -17 56 -49l44 -35q1 1 1 3q21 33 2 71q-13 28 -57 75zM237 545q3 44 -15.5 71.5t-47.5 36.5q-28 9 -52 -0.5t-35 -32.5q-14 -32 10 -72q16 -27 74 -88q61 -64 79 -100q33 -68 -4 -130q-4 -5 -9 -9q83 -83 58 -168
q-17 -56 -57.5 -77t-86.5 -8q-41 13 -72 48.5t-39 81.5q-2 13 5.5 23t20 12t22.5 -5.5t12 -19.5q4 -29 24 -52t45 -30q50 -15 68 45q17 54 -54 118q-16 15 -71 57q-47 37 -65 59q-27 32 -27 65q1 31 25 56q18 18 48 30q-30 33 -47 61q-40 66 -14 127q21 47 67 64t93 2
q49 -15 79 -59.5t26 -109.5q-1 -12 -10.5 -20.5t-21.5 -7.5t-20.5 10.5t-7.5 21.5z" />
    <glyph glyph-name="dieresis" unicode="&#xa8;" horiz-adv-x="215" 
d="M73 661q0 -12 -9 -21t-21 -9t-21 9t-9 21t9 21t21 9t21 -9t9 -21zM180 658q0 -12 -9 -21t-21 -9t-21 9t-9 21t9 21t21 9t21 -9t9 -21z" />
    <glyph glyph-name="copyright" unicode="&#xa9;" 
d="M253 648q-36 -6 -39 -7q-54 -21 -92 -116q-40 -95 -42 -211q-2 -119 39 -195q43 -78 124 -80q70 -2 113 77t46 200q2 122 -37 216q-41 95 -107 114q-3 1 -5 2zM272 704h2q94 -27 146 -149q44 -106 42 -240q-3 -136 -53 -228q-61 -111 -168 -108q-115 3 -175 112
q-48 89 -46 224q2 127 46 233q49 118 126 149q9 3 20.5 5.5t24 4t13.5 1.5q12 3 22 -4zM283 392q-8 54 -26 77q-9 11 -16 9q-13 -3 -29 -28.5t-23 -70.5q-13 -76 2 -131q6 -24 14 -39.5t15.5 -22t13 -9t10.5 -1.5q14 2 30.5 21.5t27.5 59.5q3 12 14 18t23 3t18 -14t3 -23
q-14 -51 -42.5 -85.5t-66.5 -39.5q-42 -5 -72.5 27.5t-45.5 88.5q-18 68 -4 157q9 56 35 97.5t63 50.5q44 10 77 -31q27 -35 39 -104q2 -12 -5.5 -22.5t-19.5 -12.5t-22.5 5.5t-12.5 19.5z" />
    <glyph glyph-name="ordfeminine" unicode="&#xaa;" horiz-adv-x="364" 
d="M256 496q-2 18 -6 68q-10 -6 -64 -34q-49 -26 -70 -54q-22 -31 -16 -52q5 -16 25 -21q27 -6 64 15.5t67 77.5zM56 656q69 50 134 60q76 11 101 -35q5 -9 8.5 -22t4.5 -20.5t2.5 -26.5t1.5 -20q10 -109 13 -129q3 -14 10 -38l12 -40q3 -12 -3 -23t-18 -14t-23 3t-14 18
q-2 6 -3.5 12.5t-4 14.5t-4.5 12l-1 5q-36 -42 -78.5 -59.5t-81.5 -8.5q-25 5 -43.5 21t-25.5 41q-15 49 25 105q29 40 91 72l22 10q17 9 23 12.5t17 10.5t19 14q2 2 4 3q-2 12 -5 18q-5 9 -41 4q-50 -7 -106 -48q-10 -8 -22.5 -6t-20 12t-5.5 22.5t12 19.5z" />
    <glyph glyph-name="guillemotleft" unicode="&#xab;" horiz-adv-x="472" 
d="M207 420q-15 -24 -89 -108l-49 -54l-10 -12q4 -8 13 -17q16 -17 47 -37q25 -15 60 -33l49 -24q11 -6 14.5 -18t-2 -23t-17.5 -14.5t-23 1.5l-48 24q-38 20 -64 36q-38 24 -60 47q-31 32 -32 65q0 7 2 13q1 2 2 3t2 3l1 1l2 2l4 6l16 17l48 54q71 81 84 100
q6 11 18.5 13.5t23 -4t13 -19t-4.5 -22.5zM400 395q-19 -21 -86 -87l-42 -41l-2 -1q4 -5 9 -10q18 -18 48 -41q58 -43 93 -61q12 -6 15.5 -17.5t-2 -23t-17 -15t-22.5 1.5q-41 20 -103 68q-34 25 -54 46q-30 29 -34 51q-1 9 3 18q1 2 3 5q1 1 2.5 3t4.5 5l14 14l42 41
q69 68 84 84q8 9 20.5 10t21.5 -7.5t10 -21t-8 -21.5z" />
    <glyph glyph-name="logicalnot" unicode="&#xac;" horiz-adv-x="442" 
d="M31 352q33 0 71.5 2.5t65.5 5t72 7.5q36 4 67 7l31 3l21 2l7 1h2h1h1h2h3l6 -2q11 -3 16 -14q9 -16 10 -43q1 -18 -2 -44q-2 -16 -6 -42t-4 -31q-2 -13 -11.5 -20.5t-22 -6t-20 11t-6.5 21.5q1 6 4.5 31.5t5.5 41.5q2 21 2 35l-3 -1l-31 -3q-24 -2 -68 -7
q-47 -5 -74.5 -7.5t-67 -5t-72.5 -2.5q-12 0 -21 9t-9 21t9 21t21 9z" />
    <glyph glyph-name="registered" unicode="&#xae;" 
d="M253 648q-36 -6 -39 -7q-54 -21 -92 -116q-40 -95 -42 -211q-2 -119 39 -195q43 -78 124 -80q70 -2 113 77t46 200q2 122 -37 216q-41 95 -107 114q-3 1 -5 2zM272 704h2q94 -27 146 -149q44 -106 42 -240q-3 -136 -53 -228q-61 -111 -168 -108q-115 3 -175 112
q-48 89 -46 224q2 127 46 233q49 118 126 149q9 3 20.5 5.5t24 4t13.5 1.5q12 3 22 -4zM208 442q0 -6 -3 -90q45 12 63 35.5t14 40.5t-22 21q-21 5 -52 -7zM252 305q35 -44 91 -85q10 -7 12 -19.5t-5.5 -22.5t-20 -12t-22.5 6q-62 46 -102 96q0 -33 3 -61q1 -13 -7 -22.5
t-20.5 -10.5t-22 7t-10.5 20q-5 57 -3 136q0 15 1 46.5t2 48.5q-4 3 -7 8q-6 10 -3.5 21.5t12.5 18.5q7 19 28 19q4 0 8 -1q49 19 88 10q26 -7 43.5 -25t23.5 -42q8 -40 -16 -77.5t-73 -58.5z" />
    <glyph glyph-name="macron" unicode="&#xaf;" horiz-adv-x="397" 
d="M26 687q161 0 302 20q12 1 22 -6.5t11.5 -19.5t-6 -22t-19.5 -12q-144 -20 -310 -20q-12 0 -21 9t-9 21t9 21t21 9z" />
    <glyph glyph-name="degree" unicode="&#xb0;" horiz-adv-x="312" 
d="M144 685q-20 -13 -22 -15q-6 -6 -24 -30q-17 -23 -32.5 -68.5t-17.5 -87.5q-2 -43 12 -64q14 -19 50 -16q41 4 71 41.5t38 91.5q7 53 -13 94t-62 54zM144 745q7 1 13 -1q48 -13 78.5 -49t39.5 -79q9 -42 3 -87q-9 -70 -52 -125q-43 -54 -110 -60q-71 -6 -105 42
q-26 37 -23 101q3 50 21 104t41 85q21 29 32 38q3 3 36 26q12 9 26 5z" />
    <glyph glyph-name="plusminus" unicode="&#xb1;" horiz-adv-x="416" 
d="M31 418q55 -2 118 3q-2 32 -5 93q0 12 8 21t20.5 9.5t21.5 -7.5t10 -21q2 -58 4 -89q34 4 98 14q12 2 22 -5.5t12 -20t-5.5 -22.5t-20.5 -12q-66 -10 -100 -14q4 -45 12 -84q3 -12 -4 -22.5t-19 -13t-22.5 4.5t-12.5 19q-9 42 -14 90q-66 -5 -125 -3q-13 1 -21 10
t-7.5 21.5t9.5 20.5t21 8zM52 190q21 2 91.5 9.5t117 10.5t91.5 3q12 0 21 -9t9 -21t-9 -21t-21 -9q-45 0 -90.5 -3t-113 -10.5t-90.5 -9.5q-13 -1 -22.5 7t-10.5 20.5t7 22t20 10.5z" />
    <glyph glyph-name="uni00B2" unicode="&#xb2;" horiz-adv-x="325" 
d="M60 619q16 22 47.5 45t63.5 35q43 16 73 5q42 -16 46 -70t-63 -142q-35 -46 -95 -109l-27 -28q15 0 33 1q23 1 50 2l42 3q17 1 19 1q12 1 21 -7.5t10 -21t-7.5 -21.5t-21.5 -10q-1 0 -17 -1l-44 -3q-25 -1 -49 -2q-49 -2 -71 -3h-25h-10q-3 1 -5 1q-9 1 -16 9q-9 9 -9 22
q0 5 2 9q1 3 2 5t2 3t1 2l1 1l3 2l7 9l24 25l41 44q59 61 91 103q53 70 51 102q0 7 -2 11.5t-3 5.5h-2q-9 4 -31 -4q-24 -9 -48.5 -27t-33.5 -31q-8 -10 -20 -12.5t-22 5t-12.5 19.5t4.5 22z" />
    <glyph glyph-name="uni00B3" unicode="&#xb3;" horiz-adv-x="329" 
d="M23 641q15 14 49.5 34t66.5 31q47 15 76 5q23 -7 33 -28q10 -19 8 -46q-4 -41 -46 -75q3 -1 6 -3q30 -14 53.5 -46t27.5 -66q5 -53 -25 -88.5t-78 -50.5q-42 -13 -89 -11t-81 19q-11 6 -14.5 18t2 23t17.5 14.5t23 -1.5q22 -12 56 -13.5t67 8.5q68 22 62 76
q-2 17 -16 36.5t-31 27.5q-19 9 -42 0l-10 -4q-9 -4 -17 -4q-14 0 -23 10q-8 9 -9 22q0 8 4 19t16 20q5 4 14 9l34 20q37 26 39 46q1 7 0 11q-11 4 -37.5 -5t-55.5 -25.5t-40 -26.5q-9 -9 -21.5 -8t-21 10t-7.5 21.5t10 20.5z" />
    <glyph glyph-name="acute" unicode="&#xb4;" horiz-adv-x="188" 
d="M149 720q-67 -77 -82 -134q-3 -12 -14 -18t-23 -3t-18 14t-3 23q19 70 94 158q8 9 20.5 10t22 -7t10.5 -20.5t-7 -22.5z" />
    <glyph glyph-name="uni00B5" unicode="&#xb5;" horiz-adv-x="397" 
d="M302 127q18 -38 56 -86q8 -10 6.5 -22.5t-11 -20t-22 -6t-19.5 10.5q-28 35 -44 61q-21 -33 -48 -48q-39 -23 -81 -6q-29 12 -54 41q-9 -60 -21 -118q-2 -12 -12.5 -19t-22.5 -4.5t-19 13t-4 22.5q55 267 42 546q-1 12 7.5 21t21 10t21.5 -7.5t10 -21.5q8 -169 -10 -340
q10 -33 27.5 -56.5t35.5 -30.5q16 -6 30 2q21 12 39 51q26 56 34 177q5 83 1 194q0 12 8.5 21.5t20.5 9.5t21.5 -8.5t9.5 -20.5q4 -110 -2 -199q-7 -100 -24 -160q2 -3 3 -6z" />
    <glyph glyph-name="paragraph" unicode="&#xb6;" horiz-adv-x="436" 
d="M232 647q-21 -7 -40 -20q-40 -26 -64 -67q-24 -40 -23 -83q1 -68 86 -134q17 -14 37 -26q6 214 4 330zM331 198q-23 9 -45 19q-3 -113 -3 -192q0 -12 -9 -21t-21 -9t-21 9t-9 21q0 86 4 223q-41 23 -72 47q-109 85 -110 182q-1 60 31 113q32 54 83 87q34 22 71.5 32.5
t79.5 5t78 -28.5q10 -6 13 -17.5t-3 -21.5q2 -114 -3.5 -325t-5.5 -298q0 -12 -9 -21t-21 -9t-21 9t-9 21q0 74 2 174zM338 645q-22 10 -46 11q2 -118 -5 -373l46 -21q7 270 5 383z" />
    <glyph glyph-name="periodcentered" unicode="&#xb7;" horiz-adv-x="116" 
d="M81 397q0 -12 -9 -21t-21 -9t-21 9t-9 21t9 21t21 9t21 -9t9 -21z" />
    <glyph glyph-name="cedilla" unicode="&#xb8;" horiz-adv-x="144" 
d="M109 46q-28 -89 -82 -154q-8 -10 -20.5 -11t-22 7t-10.5 20.5t7 21.5q46 56 70 134q4 12 15 17.5t23 2t17.5 -14.5t2.5 -23z" />
    <glyph glyph-name="uni00B9" unicode="&#xb9;" horiz-adv-x="237" 
d="M200 686q0 -19 -1 -178q-1 -108 4 -175q1 -12 -7 -21.5t-20.5 -10.5t-22 7t-10.5 21q-5 69 -4 179q1 159 1 176q0 13 8.5 22t21 9t21.5 -8.5t9 -20.5z" />
    <glyph glyph-name="ordmasculine" unicode="&#xba;" horiz-adv-x="369" 
d="M204 668q-31 -7 -55 -43q-29 -44 -36 -107t12 -108q18 -42 53 -47q37 -6 65 24t37 86q10 58 -8 109.5t-59 76.5q-5 4 -9 9zM238 714q4 -2 7 -3q60 -37 83 -106.5t11 -140.5q-5 -33 -18 -63t-33.5 -54.5t-51.5 -36.5t-66 -7q-69 10 -100 83q-26 59 -17 138q9 78 46 134
q44 67 111 71q19 1 28 -15z" />
    <glyph glyph-name="guillemotright" unicode="&#xbb;" horiz-adv-x="480" 
d="M67 488q49 -75 141 -160q2 -1 3.5 -2t5 -3t8.5 -6q24 -18 23 -43q-1 -12 -9 -27q-6 -11 -16 -26q-17 -23 -45 -57q-50 -59 -84 -92q-9 -8 -21.5 -8t-21 9t-8.5 21.5t9 21.5q32 30 80 87q27 32 42 53q6 9 10 16q-12 8 -16 12q-98 90 -151 172q-7 10 -4.5 22t13 19
t22.5 4.5t19 -13.5zM223 501q112 -111 175 -158q3 -2 8 -4.5t11 -6.5q23 -13 29 -33q3 -13 -2 -25q-3 -7 -8 -13q-6 -9 -19 -21q-7 -7 -56 -50q-81 -71 -95 -102q-5 -12 -16.5 -16t-23 1t-15.5 16.5t1 22.5q19 43 110 123q48 42 53 48l3 2q-11 6 -16 10q-65 48 -181 164
q-9 9 -9 21t9 21t21 9t21 -9z" />
    <glyph glyph-name="onequarter" unicode="&#xbc;" horiz-adv-x="768" 
d="M610 156q0 12 0.5 83.5t-0.5 84.5l-59 -79q-41 -55 -59 -81l-6 -11q27 -2 75 0q22 1 49 3zM165 681q4 -194 -8 -375q-1 -12 -10.5 -20.5t-21.5 -7.5t-20.5 10.5t-7.5 21.5q12 179 8 369q0 13 8.5 22t21 9t21.5 -8.5t9 -20.5zM668 403q2 -41 2 -243q27 2 32 2
q13 1 22 -7.5t10 -21t-7.5 -21.5t-20.5 -10q-6 0 -35 -2q1 -36 2 -67q1 -12 -7.5 -21t-21 -10t-21.5 7.5t-10 21.5q-1 30 -2 65q-26 -2 -48 -3q-52 -2 -83 1q-20 1 -32 5q-26 7 -33 27q-3 11 1 25q2 6 7 14q6 12 19 32q20 29 61 84l44 57l42 56q16 22 22 31q7 10 19.5 12.5
t22.5 -4.5t12 -19q3 -5 3 -11zM82 20q257 324 494 676q7 10 19 12.5t22.5 -4.5t13 -19t-4.5 -23q-239 -354 -498 -680q-7 -9 -19.5 -10.5t-22 6t-11 20t6.5 22.5z" />
    <glyph glyph-name="onehalf" unicode="&#xbd;" horiz-adv-x="733" 
d="M165 681q4 -194 -8 -375q-1 -12 -10.5 -20.5t-21.5 -7.5t-20.5 10.5t-7.5 21.5q12 179 8 369q0 13 8.5 22t21 9t21.5 -8.5t9 -20.5zM82 20q257 324 494 676q7 10 19 12.5t22.5 -4.5t13 -19t-4.5 -23q-239 -354 -498 -680q-7 -9 -19.5 -10.5t-22 6t-11 20t6.5 22.5z
M433 265q42 51 83 80q77 54 133 17q18 -11 27 -31t9 -40q0 -41 -51 -96q-35 -37 -98 -86l-72 -53h107q46 0 96 3q13 1 22 -7.5t10 -21t-7.5 -21.5t-20.5 -10q-52 -3 -100 -3h-128h-31q-14 0 -23 1q-7 1 -11 2q-5 2 -9 4q-12 7 -15 21q-3 12 4 24q3 3 6 7q4 4 11 10
q9 7 32 23l93 69q59 46 90 79q35 38 35 55q0 15 -8 21q-23 15 -67 -16q-34 -24 -71 -69q-8 -10 -20.5 -11t-22 7t-10.5 20.5t7 21.5z" />
    <glyph glyph-name="threequarters" unicode="&#xbe;" horiz-adv-x="768" 
d="M609 156q0 12 0.5 83.5t-0.5 84.5l-59 -79q-41 -55 -59 -81l-6 -11q27 -2 75 0q22 1 49 3zM667 403q2 -41 2 -243q27 2 32 2q13 1 22 -7.5t10 -21t-7.5 -21.5t-20.5 -10q-6 0 -35 -2q1 -36 2 -67q1 -12 -7.5 -21t-21 -10t-21.5 7.5t-10 21.5q-1 30 -2 65q-26 -2 -48 -3
q-52 -2 -83 1q-20 1 -32 5q-26 7 -33 27q-3 11 1 25q2 6 7 14q6 12 19 32q20 29 61 84l44 57l42 56q16 22 22 31q7 10 19.5 12.5t22.5 -4.5t12 -19q3 -5 3 -11zM81 20q257 324 494 676q7 10 19 12.5t22.5 -4.5t13 -19t-4.5 -23q-239 -354 -498 -680q-7 -9 -19.5 -10.5t-22 6
t-11 20t6.5 22.5zM13 659q46 46 114 65q94 26 137 -38q22 -33 14 -67q-6 -27 -31 -51q-15 -15 -36 -27q31 -15 54 -35q65 -58 41 -128q-25 -76 -127 -83q-63 -5 -137 17q-12 4 -17.5 15t-2 23t14.5 17.5t23 2.5q63 -19 115 -16q61 5 75 44q10 31 -25 63q-35 31 -79 39h-2
q-1 0 -5 -0.5t-6 -1.5q-12 -1 -21 1q-25 8 -25 34q0 22 19 32q8 5 20 6q11 1 13 1q44 17 66 39q12 11 15 21q2 9 -6 20q-19 29 -71 14q-53 -14 -88 -49q-9 -9 -21 -9t-21 9t-9 21t9 21z" />
    <glyph glyph-name="questiondown" unicode="&#xbf;" horiz-adv-x="404" 
d="M371 206q-16 -31 -57.5 -78t-87.5 -82q-58 -44 -107 -54q-68 -13 -109 38q-16 21 -21.5 51.5t1.5 53.5q7 30 23.5 63.5t27.5 50t39.5 54t32.5 43.5q38 52 55.5 99.5t9.5 107.5q-1 13 6.5 22.5t20 11t22 -6t11.5 -19.5q9 -75 -12.5 -133t-64.5 -118l-33 -45
q-27 -36 -36.5 -50t-23.5 -41.5t-20 -52.5q-3 -13 -0.5 -28.5t10.5 -24.5q18 -23 49 -17q35 7 82 43q42 31 79 73t51 67q6 11 17.5 14.5t22.5 -2.5t14.5 -17.5t-2.5 -22.5zM229 675q0 -12 -9 -21t-21 -9t-21 9t-9 21t9 21t21 9t21 -9t9 -21z" />
    <glyph glyph-name="Agrave" unicode="&#xc0;" horiz-adv-x="625" 
d="M172 262q112 18 204 20q-21 59 -64 196q0 2 -4 17t-11 41l-11 48l-2 6l-43 -128zM151 198q-35 -108 -54 -194q-2 -12 -12.5 -19t-22.5 -4.5t-19 13t-4 22.5q16 77 45 170q-13 -3 -23 4t-12.5 19.5t4.5 22.5t19 12l33 7l80 231l51 157l10 32q4 14 7 22q2 6 3 9.5t3 5.5
q2 5 6 8q7 5 15 7q14 2 25 -8q6 -5 9 -14q2 -3 4 -9q3 -8 7 -24l19 -69l11 -47l10 -40q4 -14 5 -16q46 -149 70 -214q32 0 63 -3q12 -1 20 -10.5t7 -22t-10.5 -20.5t-22.5 -7q-16 2 -33 2q51 -120 123 -213q7 -9 5.5 -21.5t-11 -20t-22 -6t-20.5 11.5q-81 104 -140 251
q-108 -1 -248 -25zM243 840q82 -55 122 -73q11 -4 15.5 -16t0 -23t-16.5 -15.5t-23 0.5q-45 19 -132 77q-10 7 -12.5 19t4.5 22.5t19 13t23 -4.5z" />
    <glyph glyph-name="Aacute" unicode="&#xc1;" horiz-adv-x="625" 
d="M172 262q112 18 204 20q-21 59 -64 196q0 2 -4 17t-11 41l-11 48l-2 6l-43 -128zM151 198q-35 -108 -54 -194q-2 -12 -12.5 -19t-22.5 -4.5t-19 13t-4 22.5q16 77 45 170q-13 -3 -23 4t-12.5 19.5t4.5 22.5t19 12l33 7l80 231l51 157l10 32q4 14 7 22q2 6 3 9.5t3 5.5
q2 5 6 8q7 5 15 7q14 2 25 -8q6 -5 9 -14q2 -3 4 -9q3 -8 7 -24l19 -69l11 -47l10 -40q4 -14 5 -16q46 -149 70 -214q32 0 63 -3q12 -1 20 -10.5t7 -22t-10.5 -20.5t-22.5 -7q-16 2 -33 2q51 -120 123 -213q7 -9 5.5 -21.5t-11 -20t-22 -6t-20.5 11.5q-81 104 -140 251
q-108 -1 -248 -25z" />
    <glyph glyph-name="Acircumflex" unicode="&#xc2;" horiz-adv-x="625" 
d="M172 262q112 18 204 20q-21 59 -64 196q0 2 -4 17t-11 41l-11 48l-2 6l-43 -128zM151 198q-35 -108 -54 -194q-2 -12 -12.5 -19t-22.5 -4.5t-19 13t-4 22.5q16 77 45 170q-13 -3 -23 4t-12.5 19.5t4.5 22.5t19 12l33 7l80 231l51 157l10 32q4 14 7 22q2 6 3 9.5t3 5.5
q2 5 6 8q7 5 15 7q14 2 25 -8q6 -5 9 -14q2 -3 4 -9q3 -8 7 -24l19 -69l11 -47l10 -40q4 -14 5 -16q46 -149 70 -214q32 0 63 -3q12 -1 20 -10.5t7 -22t-10.5 -20.5t-22.5 -7q-16 2 -33 2q51 -120 123 -213q7 -9 5.5 -21.5t-11 -20t-22 -6t-20.5 11.5q-81 104 -140 251
q-108 -1 -248 -25zM167 771q31 21 77 57q16 13 24 18q16 10 31 9q17 -1 32 -13q8 -6 21 -21q52 -60 65 -73q8 -9 8 -21.5t-9 -21t-21.5 -8.5t-21.5 9q-5 6 -66 75q-7 8 -11 12q-5 -3 -15 -11q-50 -40 -80 -61q-10 -7 -22.5 -4.5t-19.5 12.5t-4.5 22.5t12.5 19.5z" />
    <glyph glyph-name="Atilde" unicode="&#xc3;" horiz-adv-x="625" 
d="M172 262q112 18 204 20q-21 59 -64 196q0 2 -4 17t-11 41l-11 48l-2 6l-43 -128zM151 198q-35 -108 -54 -194q-2 -12 -12.5 -19t-22.5 -4.5t-19 13t-4 22.5q16 77 45 170q-13 -3 -23 4t-12.5 19.5t4.5 22.5t19 12l33 7l80 231l51 157l10 32q4 14 7 22q2 6 3 9.5t3 5.5
q2 5 6 8q7 5 15 7q14 2 25 -8q6 -5 9 -14q2 -3 4 -9q3 -8 7 -24l19 -69l11 -47l10 -40q4 -14 5 -16q46 -149 70 -214q32 0 63 -3q12 -1 20 -10.5t7 -22t-10.5 -20.5t-22.5 -7q-16 2 -33 2q51 -120 123 -213q7 -9 5.5 -21.5t-11 -20t-22 -6t-20.5 11.5q-81 104 -140 251
q-108 -1 -248 -25zM156 794q53 53 96 49q28 -3 59 -38q16 -16 20 -17q14 0 46 34q8 9 20.5 9.5t21.5 -7.5t9.5 -20.5t-7.5 -21.5q-51 -56 -93 -54q-29 2 -61 37q-16 17 -22 18q-14 2 -47 -31q-9 -9 -21 -9t-21 9t-9 21t9 21z" />
    <glyph glyph-name="Adieresis" unicode="&#xc4;" horiz-adv-x="625" 
d="M172 262q112 18 204 20q-21 59 -64 196q0 2 -4 17t-11 41l-11 48l-2 6l-43 -128zM151 198q-35 -108 -54 -194q-2 -12 -12.5 -19t-22.5 -4.5t-19 13t-4 22.5q16 77 45 170q-13 -3 -23 4t-12.5 19.5t4.5 22.5t19 12l33 7l80 231l51 157l10 32q4 14 7 22q2 6 3 9.5t3 5.5
q2 5 6 8q7 5 15 7q14 2 25 -8q6 -5 9 -14q2 -3 4 -9q3 -8 7 -24l19 -69l11 -47l10 -40q4 -14 5 -16q46 -149 70 -214q32 0 63 -3q12 -1 20 -10.5t7 -22t-10.5 -20.5t-22.5 -7q-16 2 -33 2q51 -120 123 -213q7 -9 5.5 -21.5t-11 -20t-22 -6t-20.5 11.5q-81 104 -140 251
q-108 -1 -248 -25zM265 799q0 -12 -9 -21t-21 -9t-21 9t-9 21t9 21t21 9t21 -9t9 -21zM373 801q0 -12 -9 -21t-21 -9t-21 9t-9 21t9 21t21 9t21 -9t9 -21z" />
    <glyph glyph-name="Aring" unicode="&#xc5;" horiz-adv-x="625" 
d="M172 262q112 18 204 20q-21 59 -64 196q0 2 -4 17t-11 41l-11 48l-2 6l-43 -128zM151 198q-35 -108 -54 -194q-2 -12 -12.5 -19t-22.5 -4.5t-19 13t-4 22.5q16 77 45 170q-13 -3 -23 4t-12.5 19.5t4.5 22.5t19 12l33 7l80 231q34 101 51 157l6 19q-38 3 -64 21
q-42 28 -41 77q1 44 36.5 78t88.5 39q62 6 104.5 -20t45.5 -72q2 -37 -22 -65.5t-66 -42.5l1 -5l19 -69l11 -47l10 -40q4 -14 5 -16q46 -149 70 -214q32 0 63 -3q12 -1 20 -10.5t7 -22t-10.5 -20.5t-22.5 -7q-16 2 -33 2q51 -120 123 -213q7 -9 5.5 -21.5t-11 -20t-22 -6
t-20.5 11.5q-81 104 -140 251q-108 -1 -248 -25zM271 724q24 2 41.5 8.5t25.5 15t11 15.5t3 14q-1 8 -7 16.5t-26 15.5q-21 7 -51 4q-33 -3 -51.5 -21.5t-19.5 -36.5q0 -17 14 -26q16 -11 44 -12q7 6 16 7z" />
    <glyph glyph-name="AE" unicode="&#xc6;" horiz-adv-x="933" 
d="M187 306q102 -9 184 -9q-19 54 -59 181q0 2 -4 17t-11 41l-11 48l-2 6l-43 -128zM167 248q-48 -142 -70 -244q-2 -12 -12.5 -19t-22.5 -4.5t-19 13t-4 22.5q22 102 67 238q-10 4 -16 12.5t-5 19.5q2 13 11.5 20.5t21.5 6.5l8 -1l59 170l51 157l10 32l1 4q-1 3 -1 7
q0 15 11 24l2 2q2 5 6 8q7 5 15 7q14 2 25 -8q1 -1 3 -2q36 1 111 10q100 12 151 12q12 0 21 -9t9 -21t-9 -21t-21 -9q-48 0 -144 -11q-64 -8 -97 -10l15 -55l11 -47l10 -40q4 -14 5 -16q42 -138 64 -197q137 8 261 47q12 3 23 -2.5t14.5 -17.5t-2 -23t-17.5 -15
q-123 -38 -257 -47q52 -128 121 -220q197 22 295 20q12 0 20.5 -9t8.5 -21.5t-9 -21t-22 -8.5q-92 2 -298 -21h-6q-16 -1 -27 12q-85 108 -146 266q-99 -2 -226 10z" />
    <glyph glyph-name="Ccedilla" unicode="&#xc7;" horiz-adv-x="539" 
d="M324 553q-25 65 -60 85q-26 15 -57 2q-34 -14 -66 -56q-32 -41 -49 -95q-36 -113 -31 -222q7 -129 73 -195q22 -21 63 -32q86 -22 159 51q64 64 95 167q4 12 15 17.5t23 2t17.5 -14.5t2.5 -23q-36 -117 -111 -192q-78 -77 -172 -73l-5 -8q12 -7 21 -16q36 -33 23 -67
q-10 -24 -46 -36q-33 -11 -88 -13q-12 0 -21.5 8.5t-9.5 20.5t8.5 21.5t20.5 9.5q46 2 71 10q1 0 3 1l-1 1q-7 6 -16 10q-17 9 -23 17q-15 19 -3 45l4 8q-43 14 -72 43q-83 81 -91 234q-6 121 33 243q21 64 61 116t89 73q58 24 110 -6q53 -30 86 -115q4 -12 -1 -23
t-16.5 -15.5t-22.5 0.5t-16 16z" />
    <glyph glyph-name="Egrave" unicode="&#xc8;" horiz-adv-x="520" 
d="M73 675q19 1 124 13q96 11 158 10q12 0 20.5 -9t8.5 -21.5t-9 -21t-22 -8.5q-57 1 -149 -9q-105 -12 -126 -14q5 -83 5 -200q136 24 226 26q13 0 22 -8.5t9 -21t-8.5 -21.5t-20.5 -9q-88 -2 -228 -27q-1 -151 -1 -155q0 -6 -1.5 -36.5t-1.5 -49.5q-1 -30 0 -48
q1 -10 1 -15q1 -1 3 -1q12 -3 36 -3q44 -1 119 7q54 6 134 18l80 12q13 1 22.5 -6.5t11 -20t-6 -22t-19.5 -11.5q-1 0 -81.5 -12t-133.5 -18q-80 -8 -127 -7q-30 0 -49 5q-31 7 -41 27q-7 13 -9 44q-1 20 0 52q0 20 1.5 49.5t1.5 35.5q0 35 0.5 112.5t0.5 122t-2 109.5
t-6 119q-1 12 7 21.5t21 10.5q22 2 30 -19zM131 832q82 -44 132 -67q11 -5 15 -16.5t-1 -23t-16.5 -15.5t-23.5 1q-51 24 -134 69q-11 5 -14.5 17t2 23t17.5 14.5t23 -2.5z" />
    <glyph glyph-name="Eacute" unicode="&#xc9;" horiz-adv-x="520" 
d="M73 675q19 1 124 13q96 11 158 10q12 0 20.5 -9t8.5 -21.5t-9 -21t-22 -8.5q-57 1 -149 -9q-105 -12 -126 -14q5 -83 5 -200q136 24 226 26q13 0 22 -8.5t9 -21t-8.5 -21.5t-20.5 -9q-88 -2 -228 -27q-1 -151 -1 -155q0 -6 -1.5 -36.5t-1.5 -49.5q-1 -30 0 -48
q1 -10 1 -15q1 -1 3 -1q12 -3 36 -3q44 -1 119 7q54 6 134 18l80 12q13 1 22.5 -6.5t11 -20t-6 -22t-19.5 -11.5q-1 0 -81.5 -12t-133.5 -18q-80 -8 -127 -7q-30 0 -49 5q-31 7 -41 27q-7 13 -9 44q-1 20 0 52q0 20 1.5 49.5t1.5 35.5q0 35 0.5 112.5t0.5 122t-2 109.5
t-6 119q-1 12 7 21.5t21 10.5q22 2 30 -19zM108 759q52 27 106 70q10 8 22.5 7t20 -11t6.5 -22.5t-11 -19.5q-59 -47 -116 -78q-11 -5 -23 -1.5t-17.5 14.5t-2 23t14.5 18z" />
    <glyph glyph-name="Ecircumflex" unicode="&#xca;" horiz-adv-x="520" 
d="M73 675q19 1 124 13q96 11 158 10q12 0 20.5 -9t8.5 -21.5t-9 -21t-22 -8.5q-57 1 -149 -9q-105 -12 -126 -14q5 -83 5 -200q136 24 226 26q13 0 22 -8.5t9 -21t-8.5 -21.5t-20.5 -9q-88 -2 -228 -27q-1 -151 -1 -155q0 -6 -1.5 -36.5t-1.5 -49.5q-1 -30 0 -48
q1 -10 1 -15q1 -1 3 -1q12 -3 36 -3q44 -1 119 7q54 6 134 18l80 12q13 1 22.5 -6.5t11 -20t-6 -22t-19.5 -11.5q-1 0 -81.5 -12t-133.5 -18q-80 -8 -127 -7q-30 0 -49 5q-31 7 -41 27q-7 13 -9 44q-1 20 0 52q0 20 1.5 49.5t1.5 35.5q0 35 0.5 112.5t0.5 122t-2 109.5
t-6 119q-1 12 7 21.5t21 10.5q22 2 30 -19zM66 757q64 80 66 82q31 37 60 36q24 -1 59 -32l73 -66q10 -8 11 -20.5t-7 -22t-20.5 -10.5t-21.5 7q-1 1 -75 67q-13 12 -21 17q-2 -3 -13 -15q-1 -1 -63 -81q-8 -9 -20.5 -10.5t-22 6t-11 20t5.5 22.5z" />
    <glyph glyph-name="Edieresis" unicode="&#xcb;" horiz-adv-x="520" 
d="M73 675q19 1 124 13q96 11 158 10q12 0 20.5 -9t8.5 -21.5t-9 -21t-22 -8.5q-57 1 -149 -9q-105 -12 -126 -14q5 -83 5 -200q136 24 226 26q13 0 22 -8.5t9 -21t-8.5 -21.5t-20.5 -9q-88 -2 -228 -27q-1 -151 -1 -155q0 -6 -1.5 -36.5t-1.5 -49.5q-1 -30 0 -48
q1 -10 1 -15q1 -1 3 -1q12 -3 36 -3q44 -1 119 7q54 6 134 18l80 12q13 1 22.5 -6.5t11 -20t-6 -22t-19.5 -11.5q-1 0 -81.5 -12t-133.5 -18q-80 -8 -127 -7q-30 0 -49 5q-31 7 -41 27q-7 13 -9 44q-1 20 0 52q0 20 1.5 49.5t1.5 35.5q0 35 0.5 112.5t0.5 122t-2 109.5
t-6 119q-1 12 7 21.5t21 10.5q22 2 30 -19zM157 768q0 -12 -9 -21t-21 -9t-21 9t-9 21t9 21t21 9t21 -9t9 -21zM287 774q0 -12 -9 -21t-21 -9t-21 9t-9 21t9 21t21 9t21 -9t9 -21z" />
    <glyph glyph-name="Igrave" unicode="&#xcc;" horiz-adv-x="419" 
d="M9 689q162 4 309 23q13 1 22.5 -6.5t11 -20t-6 -22t-19.5 -11.5q-68 -8 -139 -14q4 -88 4.5 -184t-1.5 -222.5t-2 -183.5q97 6 172 -3q12 -2 19.5 -11.5t6 -22t-11 -20t-22.5 -6.5q-32 4 -65 5.5t-74.5 -1.5t-63 -5t-76 -8.5t-68.5 -8.5q-12 -1 -21.5 6.5t-11 20t6 22
t20.5 11.5q15 2 59 7l70 8q0 61 2 185.5t1.5 221.5t-4.5 185q-57 -4 -116 -5q-13 0 -22 8.5t-9 21t8.5 21.5t20.5 9zM68 833l132 -69q11 -5 14.5 -17t-2 -23t-17.5 -14.5t-23 2.5l-130 67q-12 6 -15.5 17.5t2 23t17 15t22.5 -1.5z" />
    <glyph glyph-name="Iacute" unicode="&#xcd;" horiz-adv-x="419" 
d="M9 689q162 4 309 23q13 1 22.5 -6.5t11 -20t-6 -22t-19.5 -11.5q-68 -8 -139 -14q4 -88 4.5 -184t-1.5 -222.5t-2 -183.5q97 6 172 -3q12 -2 19.5 -11.5t6 -22t-11 -20t-22.5 -6.5q-32 4 -65 5.5t-74.5 -1.5t-63 -5t-76 -8.5t-68.5 -8.5q-12 -1 -21.5 6.5t-11 20t6 22
t20.5 11.5q15 2 59 7l70 8q0 61 2 185.5t1.5 221.5t-4.5 185q-57 -4 -116 -5q-13 0 -22 8.5t-9 21t8.5 21.5t20.5 9zM82 764q45 17 97 57q10 7 22 5.5t19.5 -11.5t6 -22t-11.5 -20q-59 -45 -113 -65q-11 -4 -22.5 1t-15.5 16.5t1 23t17 15.5z" />
    <glyph glyph-name="Icircumflex" unicode="&#xce;" horiz-adv-x="419" 
d="M9 689q162 4 309 23q13 1 22.5 -6.5t11 -20t-6 -22t-19.5 -11.5q-68 -8 -139 -14q4 -88 4.5 -184t-1.5 -222.5t-2 -183.5q97 6 172 -3q12 -2 19.5 -11.5t6 -22t-11 -20t-22.5 -6.5q-32 4 -65 5.5t-74.5 -1.5t-63 -5t-76 -8.5t-68.5 -8.5q-12 -1 -21.5 6.5t-11 20t6 22
t20.5 11.5q15 2 59 7l70 8q0 61 2 185.5t1.5 221.5t-4.5 185q-57 -4 -116 -5q-13 0 -22 8.5t-9 21t8.5 21.5t20.5 9zM20 755q64 80 67 83q32 37 62 32q15 -3 30 -16q7 -6 22 -23q40 -45 65 -69q9 -9 9 -21.5t-8.5 -21.5t-21 -9t-21.5 8q-27 26 -68 73q-11 12 -15 17
q-4 -4 -9 -10q-2 -1 -64 -81q-8 -9 -20.5 -10.5t-22 6t-11 20t5.5 22.5z" />
    <glyph glyph-name="Idieresis" unicode="&#xcf;" horiz-adv-x="419" 
d="M9 689q162 4 309 23q13 1 22.5 -6.5t11 -20t-6 -22t-19.5 -11.5q-68 -8 -139 -14q4 -88 4.5 -184t-1.5 -222.5t-2 -183.5q97 6 172 -3q12 -2 19.5 -11.5t6 -22t-11 -20t-22.5 -6.5q-32 4 -65 5.5t-74.5 -1.5t-63 -5t-76 -8.5t-68.5 -8.5q-12 -1 -21.5 6.5t-11 20t6 22
t20.5 11.5q15 2 59 7l70 8q0 61 2 185.5t1.5 221.5t-4.5 185q-57 -4 -116 -5q-13 0 -22 8.5t-9 21t8.5 21.5t20.5 9zM108 774q0 -12 -9 -21t-21 -9t-21 9t-9 21t9 21t21 9t21 -9t9 -21zM221 775q0 -12 -9 -21t-21 -9t-21 9t-9 21t9 21t21 9t21 -9t9 -21z" />
    <glyph glyph-name="Eth" unicode="&#xd0;" horiz-adv-x="543" 
d="M96 47q180 -20 276 54q107 83 65 262q-21 87 -77.5 155t-136.5 98q-38 14 -129 15q7 -108 9 -216q38 1 74 3q13 1 22 -7.5t10 -21t-7.5 -21.5t-20.5 -10q-38 -2 -77 -3q1 -156 -8 -308zM81 691h19q14 0 19.5 -0.5t19.5 -0.5t21.5 -1t20 -2.5t21.5 -3.5l21 -5q11 -2 20 -6
q96 -35 162 -114.5t90 -180.5q25 -112 3 -193q-23 -80 -89 -130q-117 -89 -321 -66q-9 -15 -27 -14q-13 1 -21 10.5t-7 21.5q12 170 11 347q-49 -1 -98 -1q-12 0 -21 9t-9 21t9 21t21 9q50 0 97 1q-2 125 -11 249q-1 12 7 21.5t21 10.5q8 1 16 -3h5z" />
    <glyph glyph-name="Ntilde" unicode="&#xd1;" horiz-adv-x="556" 
d="M104 669l57 -127q42 -93 64 -137.5t62 -112.5t82 -120q20 -24 78 -86l4 -5l-4 25q-19 118 -20 122q-10 98 -13 169t7 162.5t39 168.5q4 12 15.5 17t23 1t16.5 -15.5t1 -22.5q-26 -72 -35 -156q-10 -84 -7.5 -153t13.5 -165q0 -1 20 -118q8 -48 11 -74q3 -16 4 -26v-10v-5
q0 -8 -4 -14q-10 -18 -30 -15q-6 1 -12 4q-4 2 -9 6q-7 5 -18 16l-46 47q-58 62 -80 89q-46 56 -86 125q-42 70 -67 122l-62 134q1 -96 -1 -271t-2 -232q0 -12 -9 -21t-21 -9t-21 9t-9 21q0 67 2 203.5t1.5 243.5t-5.5 203q-1 13 7.5 22t20.5 10q11 1 19 -5t12 -16zM141 765
q49 27 79 31q30 3 53 -14q8 -5 12 -9t8 -6q9 -5 28 -2q8 1 14 4l18 9q12 5 23 9q12 4 23 -1t15.5 -16.5t-0.5 -22.5t-16 -16q-3 -1 -16.5 -7.5t-27 -11.5t-25.5 -7q-37 -5 -63 8q-6 3 -13 8l-11 9l-4 4q-4 3 -10 2q-19 -2 -59 -23q-11 -6 -23 -2.5t-17.5 14.5t-2 23t14.5 17
z" />
    <glyph glyph-name="Ograve" unicode="&#xd2;" 
d="M253 648q-36 -6 -39 -7q-54 -21 -92 -116q-40 -95 -42 -211q-2 -119 39 -195q43 -78 124 -80q70 -2 113 77t46 200q2 122 -37 216q-41 95 -107 114q-3 1 -5 2zM272 704h2q94 -27 146 -149q44 -106 42 -240q-3 -136 -53 -228q-61 -111 -168 -108q-115 3 -175 112
q-48 89 -46 224q2 127 46 233q49 118 126 149q9 3 20.5 5.5t24 4t13.5 1.5q12 3 22 -4zM171 834l46 -22l42 -20q12 -5 16 -16.5t-1 -23t-16.5 -15.5t-22.5 1q-13 5 -42.5 19t-45.5 21q-11 5 -15.5 17t0 23t16.5 15.5t23 0.5z" />
    <glyph glyph-name="Oacute" unicode="&#xd3;" 
d="M253 648q-36 -6 -39 -7q-54 -21 -92 -116q-40 -95 -42 -211q-2 -119 39 -195q43 -78 124 -80q70 -2 113 77t46 200q2 122 -37 216q-41 95 -107 114q-3 1 -5 2zM272 704h2q94 -27 146 -149q44 -106 42 -240q-3 -136 -53 -228q-61 -111 -168 -108q-115 3 -175 112
q-48 89 -46 224q2 127 46 233q49 118 126 149q9 3 20.5 5.5t24 4t13.5 1.5q12 3 22 -4zM151 761q39 15 98 55q11 7 23 4.5t19 -13t4.5 -22.5t-12.5 -19q-65 -43 -110 -61q-12 -4 -23 0.5t-15.5 16.5t0 23t16.5 16z" />
    <glyph glyph-name="Ocircumflex" unicode="&#xd4;" 
d="M253 648q-36 -6 -39 -7q-54 -21 -92 -116q-40 -95 -42 -211q-2 -119 39 -195q43 -78 124 -80q70 -2 113 77t46 200q2 122 -37 216q-41 95 -107 114q-3 1 -5 2zM272 704h2q94 -27 146 -149q44 -106 42 -240q-3 -136 -53 -228q-61 -111 -168 -108q-115 3 -175 112
q-48 89 -46 224q2 127 46 233q49 118 126 149q9 3 20.5 5.5t24 4t13.5 1.5q12 3 22 -4zM128 742q45 59 62 76q33 33 64 26q22 -6 51 -40q56 -65 59 -69q8 -9 7.5 -21.5t-9.5 -20.5t-21.5 -7.5t-20.5 9.5q-4 4 -60 70q-13 14 -18 19q-4 -3 -9 -8q-14 -14 -57 -70
q-8 -10 -20 -11.5t-22 6t-11.5 19.5t5.5 22z" />
    <glyph glyph-name="Otilde" unicode="&#xd5;" 
d="M253 648q-36 -6 -39 -7q-54 -21 -92 -116q-40 -95 -42 -211q-2 -119 39 -195q43 -78 124 -80q70 -2 113 77t46 200q2 122 -37 216q-41 95 -107 114q-3 1 -5 2zM272 704h2q94 -27 146 -149q44 -106 42 -240q-3 -136 -53 -228q-61 -111 -168 -108q-115 3 -175 112
q-48 89 -46 224q2 127 46 233q49 118 126 149q9 3 20.5 5.5t24 4t13.5 1.5q12 3 22 -4zM134 749q36 56 79 61q28 4 67 -19q25 -14 31 -15q7 -1 22 22q6 10 18 13t22.5 -3.5t13.5 -18.5t-4 -23q-32 -51 -74 -50q-21 1 -59 23q-21 13 -30 11q-15 -1 -36 -33q-7 -11 -19 -13.5
t-22.5 4.5t-13 19t4.5 22z" />
    <glyph glyph-name="Odieresis" unicode="&#xd6;" 
d="M253 648q-36 -6 -39 -7q-54 -21 -92 -116q-40 -95 -42 -211q-2 -119 39 -195q43 -78 124 -80q70 -2 113 77t46 200q2 122 -37 216q-41 95 -107 114q-3 1 -5 2zM272 704h2q94 -27 146 -149q44 -106 42 -240q-3 -136 -53 -228q-61 -111 -168 -108q-115 3 -175 112
q-48 89 -46 224q2 127 46 233q49 118 126 149q9 3 20.5 5.5t24 4t13.5 1.5q12 3 22 -4zM216 766q0 -12 -9 -21t-21 -9t-21 9t-9 21t9 21t21 9t21 -9t9 -21zM325 771q0 -12 -9 -21t-21 -9t-21 9t-9 21t9 21t21 9t21 -9t9 -21z" />
    <glyph glyph-name="multiply" unicode="&#xd7;" horiz-adv-x="410" 
d="M229 310q-42 -58 -83 -95q-9 -9 -21.5 -8t-21 10t-7.5 21.5t10 20.5q39 37 81 95q-50 55 -90 118q-7 10 -4.5 22t13 19t22.5 4.5t19 -13.5q34 -52 74 -99l50 78q6 11 18.5 13.5t23 -4t13 -19t-4.5 -22.5l-58 -91q47 -47 102 -89q10 -8 11.5 -20t-6 -22t-19.5 -11.5
t-22 5.5q-54 41 -100 87z" />
    <glyph glyph-name="Oslash" unicode="&#xd8;" horiz-adv-x="611" 
d="M386 463q-9 37 -22 69q-41 95 -107 114q-3 1 -5 2q-36 -6 -39 -7q-54 -21 -92 -116q-40 -95 -42 -211q-1 -55 8 -104l98 91l94 81q56 46 107 81zM397 397q-48 -34 -105 -83l-86 -76l-100 -93q5 -13 12 -26q43 -78 124 -80q70 -2 113 77t46 200q1 41 -4 81zM59 102
l-65 -59q-9 -9 -21.5 -8t-21 10t-7.5 21.5t10 20.5l83 76q-19 69 -18 152q2 127 46 233q49 118 126 149q9 3 20.5 5.5t24 4t13.5 1.5q12 3 22 -4h2q94 -27 146 -149q11 -27 20 -57q47 29 95 53q11 5 22.5 1.5t17 -15t2 -23t-15.5 -17.5q-54 -27 -108 -62q10 -59 9 -120
q-3 -136 -53 -228q-61 -111 -168 -108q-115 3 -175 112q-3 5 -6 11z" />
    <glyph glyph-name="Ugrave" unicode="&#xd9;" horiz-adv-x="479" 
d="M97 667q-1 -91 -3 -170t8 -168q10 -88 34 -161q18 -55 40 -88q29 -41 59 -36q42 6 74 74q31 66 50 180q21 128 27 354q0 12 9 20.5t21.5 8.5t21 -9t8.5 -22q-6 -228 -28 -362q-20 -124 -54 -196q-47 -97 -121 -108q-66 -9 -116 62q-28 40 -49 104q-25 77 -35.5 172
t-8.5 176t3 171q0 12 9 20.5t21.5 8.5t21 -9t8.5 -22zM199 797q60 -26 116 -74q9 -9 10 -21t-7.5 -21.5t-20.5 -10.5t-22 7q-48 43 -100 64q-11 5 -15.5 16.5t0 23t16 16t23.5 0.5z" />
    <glyph glyph-name="Uacute" unicode="&#xda;" horiz-adv-x="479" 
d="M97 667q-1 -91 -3 -170t8 -168q10 -88 34 -161q18 -55 40 -88q29 -41 59 -36q42 6 74 74q31 66 50 180q21 128 27 354q0 12 9 20.5t21.5 8.5t21 -9t8.5 -22q-6 -228 -28 -362q-20 -124 -54 -196q-47 -97 -121 -108q-66 -9 -116 62q-28 40 -49 104q-25 77 -35.5 172
t-8.5 176t3 171q0 12 9 20.5t21.5 8.5t21 -9t8.5 -22zM182 746l112 78q11 7 23 4.5t19 -13t4.5 -22.5t-12.5 -19l-110 -76q-11 -8 -23 -6t-19.5 12.5t-5.5 22.5t12 19z" />
    <glyph glyph-name="Ucircumflex" unicode="&#xdb;" horiz-adv-x="479" 
d="M97 667q-1 -91 -3 -170t8 -168q10 -88 34 -161q18 -55 40 -88q29 -41 59 -36q42 6 74 74q31 66 50 180q21 128 27 354q0 12 9 20.5t21.5 8.5t21 -9t8.5 -22q-6 -228 -28 -362q-20 -124 -54 -196q-47 -97 -121 -108q-66 -9 -116 62q-28 40 -49 104q-25 77 -35.5 172
t-8.5 176t3 171q0 12 9 20.5t21.5 8.5t21 -9t8.5 -22zM121 734q42 51 53 62q29 30 56 32q31 3 61 -28q19 -20 56 -73q7 -10 4.5 -22.5t-12.5 -19.5t-22.5 -4.5t-19.5 12.5q-32 48 -49 65q-9 9 -13 10q-6 -1 -18 -14q-10 -9 -50 -58q-8 -10 -20.5 -11t-22 7t-10.5 20.5
t7 21.5z" />
    <glyph glyph-name="Udieresis" unicode="&#xdc;" horiz-adv-x="479" 
d="M97 667q-1 -91 -3 -170t8 -168q10 -88 34 -161q18 -55 40 -88q29 -41 59 -36q42 6 74 74q31 66 50 180q21 128 27 354q0 12 9 20.5t21.5 8.5t21 -9t8.5 -22q-6 -228 -28 -362q-20 -124 -54 -196q-47 -97 -121 -108q-66 -9 -116 62q-28 40 -49 104q-25 77 -35.5 172
t-8.5 176t3 171q0 12 9 20.5t21.5 8.5t21 -9t8.5 -22zM216 769q0 -12 -9 -21t-21 -9t-21 9t-9 21t9 21t21 9t21 -9t9 -21zM325 769q0 -12 -9 -21t-21 -9t-21 9t-9 21t9 21t21 9t21 -9t9 -21z" />
    <glyph glyph-name="Yacute" unicode="&#xdd;" horiz-adv-x="513" 
d="M118 705l5 -23l8 -36l7 -38q17 -80 33 -134q21 -75 44 -117q22 -40 38 -41q15 -1 41 37q27 39 57 116q39 100 71 228q3 12 13.5 18.5t22.5 3.5t18.5 -13.5t3.5 -22.5q-34 -135 -73 -236q-32 -82 -63 -128q-28 -41 -57 -55q0 -45 -3.5 -130t-4.5 -124q0 -13 -9 -21.5
t-21.5 -8.5t-21 9t-8.5 21q1 40 4 123.5t4 127.5q-36 14 -65 67q-26 47 -49 129q-16 57 -33 139q-4 15 -8 37t-7 35l-5 23q-3 12 3.5 22.5t18.5 13.5t22.5 -3.5t13.5 -18.5zM215 751q52 48 112 81q11 6 23 2.5t18 -14t2.5 -22.5t-13.5 -18q-54 -30 -102 -73q-9 -9 -21.5 -8
t-21 10t-7.5 21.5t10 20.5z" />
    <glyph glyph-name="Thorn" unicode="&#xde;" horiz-adv-x="445" 
d="M94 64q1 -76 1 -145q0 -12 -9 -21t-21 -9t-21 9t-9 21q0 133 -12 780q0 13 8.5 22t21 9t21.5 -8.5t9 -20.5q1 -65 4 -197q65 55 141 74q66 16 112 -6q56 -27 69 -102q18 -109 -103 -240q-86 -95 -199 -162q-6 -3 -13 -4zM89 419l5 -289q96 62 168 140q101 110 87 190
q-7 45 -35 58q-27 13 -72 2q-43 -11 -86.5 -39.5t-62.5 -56.5q-2 -3 -4 -5z" />
    <glyph glyph-name="germandbls" unicode="&#xdf;" horiz-adv-x="493" 
d="M237 390q-1 3 -3 1q1 0 3 -1zM122 76q2 6 6 10q8 9 20.5 10t21.5 -8q31 -28 76.5 -30.5t85.5 19.5q42 22 64 59.5t15 81.5q-6 39 -28 58t-60 29q-13 4 -36 8q-27 5 -35 7q-48 11 -66 35q-15 20 -5 48q5 15 19 36l31 39q21 28 27 35q35 46 45 74t-4 44q-32 37 -92 16
q-29 -10 -52 -29t-32 -39q-34 -76 -20 -264l10 -103q8 -93 9 -136zM61 24q2 34 0 76.5t-8.5 111.5t-9.5 98q-15 204 26 293q14 33 46.5 60.5t71.5 40.5q27 9 54 10t55 -10q28 -10 49 -35q36 -42 14 -102q-13 -37 -53 -90q-7 -8 -27 -34l-30 -38q-6 -10 -9 -16q11 -7 25 -11
q8 -1 34 -6q23 -5 39 -9q115 -30 133 -135q10 -66 -22.5 -120.5t-88.5 -83.5q-37 -19 -76.5 -25t-80.5 5t-73 40q-6 5 -8 11q0 -19 -1 -35q-1 -12 -10 -20.5t-21.5 -7.5t-21 10t-7.5 22z" />
    <glyph glyph-name="agrave" unicode="&#xe0;" horiz-adv-x="415" 
d="M291 158q-12 48 -27 68q-45 59 -98 56q-47 -3 -85 -49t-37 -97q0 -51 43 -75q58 -33 128 20q37 28 76 77zM45 413q57 81 138 90q99 10 151 -88q32 -61 43 -161q5 -47 5 -159v-62q0 -13 -1 -20q0 -5 -1 -9q-2 -7 -6 -12q-8 -12 -23 -12q-13 -1 -23 10q-7 8 -11 24
q-2 9 -5 25l-7 44q-27 -29 -54 -50q-101 -77 -194 -24q-39 22 -57.5 56.5t-16.5 71.5t15.5 72t36.5 62q55 66 127 71q85 5 150 -80l4 -6q-10 83 -35 131q-33 62 -92 56q-53 -6 -94 -64q-8 -10 -20 -12.5t-22 5t-12.5 19.5t4.5 22zM169 678q8 -11 37 -51q22 -31 36 -48
q8 -10 7 -22t-11 -20t-22 -7t-20 11q-15 18 -39 51l-36 50q-7 9 -5.5 21.5t11 20t22 6t20.5 -11.5z" />
    <glyph glyph-name="aacute" unicode="&#xe1;" horiz-adv-x="415" 
d="M291 158q-12 48 -27 68q-45 59 -98 56q-47 -3 -85 -49t-37 -97q0 -51 43 -75q58 -33 128 20q37 28 76 77zM45 413q57 81 138 90q99 10 151 -88q32 -61 43 -161q5 -47 5 -159v-62q0 -13 -1 -20q0 -5 -1 -9q-2 -7 -6 -12q-8 -12 -23 -12q-13 -1 -23 10q-7 8 -11 24
q-2 9 -5 25l-7 44q-27 -29 -54 -50q-101 -77 -194 -24q-39 22 -57.5 56.5t-16.5 71.5t15.5 72t36.5 62q55 66 127 71q85 5 150 -80l4 -6q-10 83 -35 131q-33 62 -92 56q-53 -6 -94 -64q-8 -10 -20 -12.5t-22 5t-12.5 19.5t4.5 22zM135 593q95 95 122 119q9 9 21.5 8t21 -10
t7.5 -21.5t-10 -20.5l-120 -117q-9 -9 -21 -9t-21 9t-9 21t9 21z" />
    <glyph glyph-name="acircumflex" unicode="&#xe2;" horiz-adv-x="415" 
d="M291 158q-12 48 -27 68q-45 59 -98 56q-47 -3 -85 -49t-37 -97q0 -51 43 -75q58 -33 128 20q37 28 76 77zM45 413q57 81 138 90q99 10 151 -88q32 -61 43 -161q5 -47 5 -159v-62q0 -13 -1 -20q0 -5 -1 -9q-2 -7 -6 -12q-8 -12 -23 -12q-13 -1 -23 10q-7 8 -11 24
q-2 9 -5 25l-7 44q-27 -29 -54 -50q-101 -77 -194 -24q-39 22 -57.5 56.5t-16.5 71.5t15.5 72t36.5 62q55 66 127 71q85 5 150 -80l4 -6q-10 83 -35 131q-33 62 -92 56q-53 -6 -94 -64q-8 -10 -20 -12.5t-22 5t-12.5 19.5t4.5 22zM64 586l58 70q29 35 52 39q29 5 63 -28
q14 -13 70 -76q8 -10 7 -22t-10.5 -20.5t-21.5 -7.5t-21 10q-54 62 -65 73q-8 7 -13 10q-6 -5 -15 -17q-59 -70 -60 -71q-8 -9 -20.5 -10t-21.5 7.5t-10 21t8 21.5z" />
    <glyph glyph-name="atilde" unicode="&#xe3;" horiz-adv-x="415" 
d="M291 158q-12 48 -27 68q-45 59 -98 56q-47 -3 -85 -49t-37 -97q0 -51 43 -75q58 -33 128 20q37 28 76 77zM45 413q57 81 138 90q99 10 151 -88q32 -61 43 -161q5 -47 5 -159v-62q0 -13 -1 -20q0 -5 -1 -9q-2 -7 -6 -12q-8 -12 -23 -12q-13 -1 -23 10q-7 8 -11 24
q-2 9 -5 25l-7 44q-27 -29 -54 -50q-101 -77 -194 -24q-39 22 -57.5 56.5t-16.5 71.5t15.5 72t36.5 62q55 66 127 71q85 5 150 -80l4 -6q-10 83 -35 131q-33 62 -92 56q-53 -6 -94 -64q-8 -10 -20 -12.5t-22 5t-12.5 19.5t4.5 22zM56 585q13 36 31 56.5t44 19.5q19 0 40 -14
l28 -22q28 -22 44 -22q27 0 63 48q8 10 20 11.5t22 -6t11.5 -19.5t-5.5 -22q-54 -71 -110 -72q-38 -1 -82 35q-21 17 -25 19q-4 3 -6 4q-8 -8 -19 -36q-4 -12 -15.5 -17t-23 -1t-16.5 15.5t-1 22.5z" />
    <glyph glyph-name="adieresis" unicode="&#xe4;" horiz-adv-x="415" 
d="M291 158q-12 48 -27 68q-45 59 -98 56q-47 -3 -85 -49t-37 -97q0 -51 43 -75q58 -33 128 20q37 28 76 77zM45 413q57 81 138 90q99 10 151 -88q32 -61 43 -161q5 -47 5 -159v-62q0 -13 -1 -20q0 -5 -1 -9q-2 -7 -6 -12q-8 -12 -23 -12q-13 -1 -23 10q-7 8 -11 24
q-2 9 -5 25l-7 44q-27 -29 -54 -50q-101 -77 -194 -24q-39 22 -57.5 56.5t-16.5 71.5t15.5 72t36.5 62q55 66 127 71q85 5 150 -80l4 -6q-10 83 -35 131q-33 62 -92 56q-53 -6 -94 -64q-8 -10 -20 -12.5t-22 5t-12.5 19.5t4.5 22zM169 608q0 -12 -9 -21t-21 -9t-21 9t-9 21
t9 21t21 9t21 -9t9 -21zM271 613q0 -12 -9 -21t-21 -9t-21 9t-9 21t9 21t21 9t21 -9t9 -21z" />
    <glyph glyph-name="aring" unicode="&#xe5;" horiz-adv-x="415" 
d="M291 158q-12 48 -27 68q-45 59 -98 56q-47 -3 -85 -49t-37 -97q0 -51 43 -75q58 -33 128 20q37 28 76 77zM216 726q7 6 17 6q62 0 90 -38q26 -35 13 -82q-12 -42 -50.5 -71.5t-90.5 -24.5q-59 6 -83 43q-23 35 -7 79q12 33 42 58.5t69 29.5zM45 413q57 81 138 90
q99 10 151 -88q32 -61 43 -161q5 -47 5 -159v-62q0 -13 -1 -20q0 -5 -1 -9q-2 -7 -6 -12q-8 -12 -23 -12q-13 -1 -23 10q-7 8 -11 24q-2 9 -5 25l-7 44q-27 -29 -54 -50q-101 -77 -194 -24q-39 22 -57.5 56.5t-16.5 71.5t15.5 72t36.5 62q55 66 127 71q85 5 150 -80l4 -6
q-10 83 -35 131q-33 62 -92 56q-53 -6 -94 -64q-8 -10 -20 -12.5t-22 5t-12.5 19.5t4.5 22zM232 667q-23 1 -43 -13.5t-28 -35.5q-6 -16 1 -26q8 -13 39 -16q28 -3 49.5 13t27.5 39q6 19 -3 30q-7 10 -26 13q-8 -4 -17 -4z" />
    <glyph glyph-name="ae" unicode="&#xe6;" horiz-adv-x="654" 
d="M380 363q18 -56 23 -134q94 11 131 69q32 51 12 108q-9 24 -24.5 37t-33.5 13q-51 1 -107 -92zM317 158q-27 78 -71 104q-52 30 -98 8q-44 -21 -65 -73q-21 -51 -4 -93q19 -45 81 -55q30 -6 80 32q38 29 77 77zM70 413q27 38 66.5 61.5t81.5 26.5q40 2 75.5 -16t58.5 -56
q65 88 137 87q40 0 69.5 -25.5t43.5 -64.5q14 -34 10 -78.5t-27 -81.5q-53 -84 -179 -97q1 -18 1 -27v-47v-1q1 -2 1.5 -6t1.5 -9q1 -4 1 -6q31 -22 70 -10q54 16 112 84q8 9 20.5 10t22 -7t10.5 -20.5t-7 -22.5q-70 -81 -141 -102q-100 -30 -167 66l-4 8q-25 -26 -51 -46
q-70 -53 -126 -44q-94 17 -126 92q-27 65 3 139q31 74 95 104q75 36 154 -10q38 -23 65 -66q-8 82 -32 136q-28 61 -87 57q-28 -2 -55.5 -18t-46.5 -44q-8 -10 -20 -12.5t-22 5t-12.5 19.5t4.5 22z" />
    <glyph glyph-name="ccedilla" unicode="&#xe7;" horiz-adv-x="390" 
d="M243 374q-13 49 -34 64q-14 9 -33 1q-24 -10 -48 -40t-36 -68q-19 -60 -17.5 -113.5t17 -93t39.5 -61.5q35 -31 77 -14q56 22 108 116q6 10 18 13.5t22.5 -2.5t14 -18t-2.5 -23q-62 -112 -138 -142q-6 -3 -12 -4q13 -23 17 -31q14 -29 10 -49q-5 -27 -36 -43
q-21 -10 -65 -22q-12 -3 -23 3t-14 18t3 23t18 14q39 10 53 18q3 1 4 2q-1 4 -4 10l-6 12l-10 16l-9 16q-3 5 -4 10q-33 8 -60 32q-55 49 -72 139q-17 91 14 192q16 48 48.5 89t70.5 57q50 20 90 -8q40 -27 58 -99q3 -12 -3 -22.5t-18.5 -13.5t-23 3t-13.5 19z" />
    <glyph glyph-name="egrave" unicode="&#xe8;" horiz-adv-x="389" 
d="M71 190q61 11 110.5 54t72.5 103q13 35 5 65q-6 25 -32 25q-28 0 -60 -31t-57 -84q-34 -69 -39 -132zM78 130q16 -44 44 -65t61 -21q35 0 70 22q33 23 55 66q6 12 17.5 15.5t23 -2t15 -17t-1.5 -22.5q-29 -58 -77.5 -90.5t-102.5 -31.5q-56 1 -101 38t-65 104
q-11 47 0 106t40 117q30 62 74 105q44 42 97 43q37 1 59.5 -19t30.5 -50q13 -49 -7 -101q-28 -77 -90.5 -130t-141.5 -67zM154 722q17 -20 43 -60q25 -37 39 -54q9 -9 8 -21.5t-10 -21t-21.5 -7.5t-20.5 10q-18 20 -45 61q-25 38 -39 53q-8 10 -7 22t10.5 20.5t21.5 7.5
t21 -10z" />
    <glyph glyph-name="eacute" unicode="&#xe9;" horiz-adv-x="389" 
d="M71 190q61 11 110.5 54t72.5 103q13 35 5 65q-6 25 -32 25q-28 0 -60 -31t-57 -84q-34 -69 -39 -132zM78 130q16 -44 44 -65t61 -21q35 0 70 22q33 23 55 66q6 12 17.5 15.5t23 -2t15 -17t-1.5 -22.5q-29 -58 -77.5 -90.5t-102.5 -31.5q-56 1 -101 38t-65 104
q-11 47 0 106t40 117q30 62 74 105q44 42 97 43q37 1 59.5 -19t30.5 -50q13 -49 -7 -101q-28 -77 -90.5 -130t-141.5 -67zM171 577q19 17 48 46l50 49q9 8 21.5 8t21 -9t8.5 -21.5t-9 -21.5l-49 -48q-31 -31 -53 -49q-9 -8 -21.5 -7t-20.5 10.5t-7 22t11 20.5z" />
    <glyph glyph-name="ecircumflex" unicode="&#xea;" horiz-adv-x="389" 
d="M71 190q61 11 110.5 54t72.5 103q13 35 5 65q-6 25 -32 25q-28 0 -60 -31t-57 -84q-34 -69 -39 -132zM78 130q16 -44 44 -65t61 -21q35 0 70 22q33 23 55 66q6 12 17.5 15.5t23 -2t15 -17t-1.5 -22.5q-29 -58 -77.5 -90.5t-102.5 -31.5q-56 1 -101 38t-65 104
q-11 47 0 106t40 117q30 62 74 105q44 42 97 43q37 1 59.5 -19t30.5 -50q13 -49 -7 -101q-28 -77 -90.5 -130t-141.5 -67zM91 575q22 18 69 71l30 34l10 11l3 3q1 2 2 2l2 2q2 2 4 3q1 1 2.5 2t7.5 2.5t15 -2.5l11 -7l2 -2l4 -4l9 -11l27 -32q43 -51 46 -54q9 -9 9 -21.5
t-8.5 -21.5t-21 -9t-21.5 8.5t-50 58.5l-18 21l-20 -23q-50 -56 -74 -77q-10 -8 -22.5 -7t-20.5 10.5t-7 22t10 20.5z" />
    <glyph glyph-name="edieresis" unicode="&#xeb;" horiz-adv-x="389" 
d="M71 190q61 11 110.5 54t72.5 103q13 35 5 65q-6 25 -32 25q-28 0 -60 -31t-57 -84q-34 -69 -39 -132zM78 130q16 -44 44 -65t61 -21q35 0 70 22q33 23 55 66q6 12 17.5 15.5t23 -2t15 -17t-1.5 -22.5q-29 -58 -77.5 -90.5t-102.5 -31.5q-56 1 -101 38t-65 104
q-11 47 0 106t40 117q30 62 74 105q44 42 97 43q37 1 59.5 -19t30.5 -50q13 -49 -7 -101q-28 -77 -90.5 -130t-141.5 -67zM192 599q0 -12 -9 -21t-21 -9t-21 9t-9 21t9 21t21 9t21 -9t9 -21zM303 594q0 -12 -9 -21t-21 -9t-21 9t-9 21t9 21t21 9t21 -9t9 -21z" />
    <glyph glyph-name="igrave" unicode="&#xec;" horiz-adv-x="174" 
d="M80 432q-6 -51 -7 -103.5t3.5 -108t10.5 -100t16 -109.5q2 -13 -5.5 -23t-20 -12t-22.5 5.5t-12 19.5q-10 67 -15.5 111.5t-10.5 103t-4 114t7 110.5q2 12 11.5 19.5t22 6t20 -11t6.5 -22.5zM18 675l27 -34l26 -33q10 -11 25 -25.5t31 -24.5q10 -7 12.5 -19.5t-4.5 -22.5
t-19.5 -12.5t-22.5 4.5q-18 13 -36.5 30.5t-29.5 31.5l-30 34l-25 32q-8 9 -7 21.5t10.5 20.5t22 7t20.5 -10z" />
    <glyph glyph-name="iacute" unicode="&#xed;" horiz-adv-x="208" 
d="M79 432q-6 -51 -7 -103.5t3.5 -108t10.5 -100t16 -109.5q2 -13 -5.5 -23t-20 -12t-22.5 5.5t-12 19.5q-10 67 -15.5 111.5t-10.5 103t-4 114t7 110.5q2 12 11.5 19.5t22 6t20 -11t6.5 -22.5zM-1 546l124 115q10 8 22 7t20.5 -10.5t7.5 -21.5t-10 -21q-26 -22 -122 -113
q-10 -8 -22 -8t-20.5 9.5t-8.5 21.5t9 21z" />
    <glyph glyph-name="icircumflex" unicode="&#xee;" horiz-adv-x="204" 
d="M80 432q-6 -51 -7 -103.5t3.5 -108t10.5 -100t16 -109.5q2 -13 -5.5 -23t-20 -12t-22.5 5.5t-12 19.5q-10 67 -15.5 111.5t-10.5 103t-4 114t7 110.5q2 12 11.5 19.5t22 6t20 -11t6.5 -22.5zM-57 561q31 27 63 62q13 15 18 19q15 14 31 15q18 0 34 -15q6 -7 17 -24
l58 -82q7 -10 5.5 -22.5t-11.5 -19.5t-22.5 -5.5t-19.5 11.5l-59 84l-2 4l-5 -5q-34 -38 -69 -68q-9 -8 -21.5 -7t-20.5 10.5t-7 22t11 20.5z" />
    <glyph glyph-name="idieresis" unicode="&#xef;" horiz-adv-x="157" 
d="M79 432q-6 -51 -7 -103.5t3.5 -108t10.5 -100t16 -109.5q2 -13 -5.5 -23t-20 -12t-22.5 5.5t-12 19.5q-10 67 -15.5 111.5t-10.5 103t-4 114t7 110.5q2 12 11.5 19.5t22 6t20 -11t6.5 -22.5zM42 586q0 -12 -9 -21t-21 -9t-21 9t-9 21t9 21t21 9t21 -9t9 -21zM122 580
q0 -12 -9 -21t-21 -9t-21 9t-9 21t9 21t21 9t21 -9t9 -21z" />
    <glyph glyph-name="eth" unicode="&#xf0;" horiz-adv-x="417" 
d="M256 322q-116 -27 -156 -96q-17 -30 -18 -61.5t12.5 -55.5t39.5 -38.5t58 -12.5q33 2 73 42q34 37 31 95t-40 127zM162 449q-47 -40 -88 -65q-11 -6 -23 -3t-18.5 13.5t-3.5 22.5t13 19q35 21 75 54q-55 44 -98 50q-12 2 -19.5 12t-5.5 22.5t12 20t23 5.5q62 -10 134 -70
l71 66q9 8 21.5 8t21 -9t8.5 -21.5t-9 -21.5l-68 -63q44 -46 78 -100q31 5 66 8q12 1 21.5 -7t10.5 -20.5t-7 -22t-21 -10.5q-20 -1 -39 -4q24 -50 34 -96.5t1 -94.5q-10 -49 -45 -84q-56 -56 -111 -60q-53 -3 -94 21t-60.5 62t-18.5 86t25 89q50 85 175 120q-28 39 -61 73z
" />
    <glyph glyph-name="ntilde" unicode="&#xf1;" horiz-adv-x="427" 
d="M19 50q1 68 0 98q-1 31 -1.5 100.5t-3 119.5t-9.5 97q-1 12 6 22t19.5 11.5t22.5 -5.5t12 -20q10 -75 12 -207q26 54 62 107q33 47 73 75q30 21 58 24q39 4 66 -26q23 -25 36 -89q10 -47 15 -122q6 -84 6 -217q0 -12 -9 -21t-21 -9t-21 9t-9 21q0 136 -5 213
q-5 70 -14 114q-10 48 -22 61q-7 7 -16 6q-12 -1 -29 -13q-32 -22 -58 -60q-101 -146 -110 -292q0 -28 -1 -38v-4v-1v-1q0 -3 -2 -7q-2 -7 -7 -12q-10 -9 -23 -8q-12 1 -20 10q-5 5 -7 11q0 2 -0.5 3.5t-0.5 3.5v13q0 16 1 33zM81 570q31 56 76 63q27 4 71 -14
q32 -13 44 -13q20 2 40 30q7 10 19 12t22.5 -5.5t12.5 -19.5t-6 -23q-36 -50 -84 -53q-26 -2 -71 16q-29 12 -39 10q-16 -2 -33 -33q-6 -10 -18 -13.5t-22.5 2.5t-14 18t2.5 23z" />
    <glyph glyph-name="ograve" unicode="&#xf2;" horiz-adv-x="387" 
d="M182 432q-6 -1 -11 -1q-1 0 -5 -0.5t-6 -0.5q-7 -1 -10 -3q-32 -16 -58 -76q-27 -63 -31 -134q-4 -76 21 -122t76 -50q65 -5 102 46q35 50 34 130q-1 71 -31 129.5t-81 81.5zM126 482q4 11 13.5 16t19.5 4q63 -12 108 -57.5t65 -102.5q21 -58 22 -120q2 -100 -46 -166
q-56 -78 -154 -71q-45 4 -77 26t-48.5 57t-23 73t-4.5 79q5 82 36 155q35 79 85 106q2 1 4 1zM106 669l28 -25l30 -27q9 -8 25.5 -20.5t31.5 -22.5q11 -6 13.5 -18t-4 -23t-18.5 -13.5t-23 4.5q-17 10 -35.5 24.5t-28.5 23.5l-32 28q-22 20 -27 25q-9 8 -10 20.5t7.5 21.5
t21 10t21.5 -8z" />
    <glyph glyph-name="oacute" unicode="&#xf3;" horiz-adv-x="387" 
d="M182 432q-6 -1 -11 -1q-1 0 -5 -0.5t-6 -0.5q-7 -1 -10 -3q-32 -16 -58 -76q-27 -63 -31 -134q-4 -76 21 -122t76 -50q65 -5 102 46q35 50 34 130q-1 71 -31 129.5t-81 81.5zM126 482q4 11 13.5 16t19.5 4q63 -12 108 -57.5t65 -102.5q21 -58 22 -120q2 -100 -46 -166
q-56 -78 -154 -71q-45 4 -77 26t-48.5 57t-23 73t-4.5 79q5 82 36 155q35 79 85 106q2 1 4 1zM87 561q35 44 120 127q9 8 21.5 8t21 -9t8.5 -21.5t-9 -21.5q-83 -79 -114 -119q-8 -10 -20.5 -11.5t-22 6t-11 20t5.5 21.5z" />
    <glyph glyph-name="ocircumflex" unicode="&#xf4;" horiz-adv-x="387" 
d="M182 432q-6 -1 -11 -1q-1 0 -5 -0.5t-6 -0.5q-7 -1 -10 -3q-32 -16 -58 -76q-27 -63 -31 -134q-4 -76 21 -122t76 -50q65 -5 102 46q35 50 34 130q-1 71 -31 129.5t-81 81.5zM126 482q4 11 13.5 16t19.5 4q63 -12 108 -57.5t65 -102.5q21 -58 22 -120q2 -100 -46 -166
q-56 -78 -154 -71q-45 4 -77 26t-48.5 57t-23 73t-4.5 79q5 82 36 155q35 79 85 106q2 1 4 1zM57 555q31 29 62 73q17 24 21 29q13 16 25 23q21 11 43 1q14 -7 29 -26q19 -24 66 -105q6 -11 3 -23t-14 -18t-23 -3t-18 14q-45 78 -61 98l-2 3l-1 -1l-19 -26q-34 -49 -69 -83
q-9 -8 -21.5 -8t-21 9t-8.5 21.5t9 21.5z" />
    <glyph glyph-name="otilde" unicode="&#xf5;" horiz-adv-x="387" 
d="M182 432q-6 -1 -11 -1q-1 0 -5 -0.5t-6 -0.5q-7 -1 -10 -3q-32 -16 -58 -76q-27 -63 -31 -134q-4 -76 21 -122t76 -50q65 -5 102 46q35 50 34 130q-1 71 -31 129.5t-81 81.5zM126 482q4 11 13.5 16t19.5 4q63 -12 108 -57.5t65 -102.5q21 -58 22 -120q2 -100 -46 -166
q-56 -78 -154 -71q-45 4 -77 26t-48.5 57t-23 73t-4.5 79q5 82 36 155q35 79 85 106q2 1 4 1zM18 580q34 76 82 74q20 -1 41 -17q8 -6 27 -23q26 -24 36 -24q16 -1 42 42q7 10 19 13t22.5 -3.5t13.5 -18.5t-3 -23q-45 -72 -97 -70q-32 1 -74 40q-17 15 -22 19t-8 5
q-10 -6 -25 -38q-5 -12 -16.5 -16t-23 1t-15.5 16.5t1 22.5z" />
    <glyph glyph-name="odieresis" unicode="&#xf6;" horiz-adv-x="387" 
d="M182 432q-6 -1 -11 -1q-1 0 -5 -0.5t-6 -0.5q-7 -1 -10 -3q-32 -16 -58 -76q-27 -63 -31 -134q-4 -76 21 -122t76 -50q65 -5 102 46q35 50 34 130q-1 71 -31 129.5t-81 81.5zM126 482q4 11 13.5 16t19.5 4q63 -12 108 -57.5t65 -102.5q21 -58 22 -120q2 -100 -46 -166
q-56 -78 -154 -71q-45 4 -77 26t-48.5 57t-23 73t-4.5 79q5 82 36 155q35 79 85 106q2 1 4 1zM150 579q0 -12 -9 -21t-21 -9t-21 9t-9 21t9 21t21 9t21 -9t9 -21zM250 572q0 -12 -9 -21t-21 -9t-21 9t-9 21t9 21t21 9t21 -9t9 -21z" />
    <glyph glyph-name="divide" unicode="&#xf7;" horiz-adv-x="438" 
d="M3 335q27 2 90 6t98.5 6.5t87.5 4.5t95 2q12 0 21 -9t9 -21t-9 -21t-21 -9q-43 0 -94.5 -2t-86.5 -4.5t-96.5 -6.5t-89.5 -6q-12 -1 -21.5 7.5t-10.5 20.5t7.5 21.5t20.5 10.5zM206 441q0 -12 -9 -21t-21 -9t-21 9t-9 21t9 21t21 9t21 -9t9 -21zM218 193q0 -12 -9 -21
t-21 -9t-21 9t-9 21t9 21t21 9t21 -9t9 -21z" />
    <glyph glyph-name="oslash" unicode="&#xf8;" horiz-adv-x="459" 
d="M274 323q-30 80 -93 109q-6 -1 -11 -1l-5 -1h-6q-7 -1 -10 -3q-32 -16 -58 -76q-27 -63 -31 -134q-2 -46 6 -81q33 32 104 95zM290 257l-80 -71q-80 -71 -117 -108q24 -30 64 -33q65 -5 102 46q35 50 34 130q0 18 -3 36zM50 34l-35 -40q-8 -10 -20.5 -11t-22 7
t-10.5 20.5t7 21.5q23 28 50 56q-23 57 -19 132q5 82 36 155q35 79 85 106q2 1 4 1q4 11 13.5 16t19.5 4q109 -20 163 -136l54 51q9 9 21 9t21 -9t9 -21t-9 -21q-32 -33 -75 -71q10 -41 11 -82q2 -100 -46 -166q-56 -78 -154 -71q-64 5 -103 49z" />
    <glyph glyph-name="ugrave" unicode="&#xf9;" horiz-adv-x="417" 
d="M90 466q-19 -130 -11 -251q6 -82 25 -128q19 -45 50 -48q18 -2 37 25q22 30 39 91q24 86 34 197q2 16 3.5 41.5t1.5 26.5q2 16 3 23t2 11q1 5 4 8q8 13 22 15q15 2 26 -10q3 -3 5 -7q1 -2 2 -5q0 -1 1 -3v-1v-2q0 -2 1 -6q0 -9 2 -23l8 -106q11 -148 45 -292
q3 -12 -3.5 -22.5t-18.5 -13.5t-22.5 3.5t-13.5 18.5q-21 88 -33 174q-5 -23 -11 -43q-20 -71 -47 -110q-40 -56 -95 -50q-64 8 -97 85q-23 55 -30 147q-9 127 11 263q2 13 12 20t22.5 5.5t19.5 -11.5t6 -22zM154 634l57 -76q7 -9 5.5 -21.5t-11 -20t-22 -6t-20.5 11.5
l-57 76q-8 10 -6 22.5t12 20t22.5 5.5t19.5 -12z" />
    <glyph glyph-name="uacute" unicode="&#xfa;" horiz-adv-x="417" 
d="M90 466q-19 -130 -11 -251q6 -82 25 -128q19 -45 50 -48q18 -2 37 25q22 30 39 91q24 86 34 197q2 16 3.5 41.5t1.5 26.5q2 16 3 23t2 11q1 5 4 8q8 13 22 15q15 2 26 -10q3 -3 5 -7q1 -2 2 -5q0 -1 1 -3v-1v-2q0 -2 1 -6q0 -9 2 -23l8 -106q11 -148 45 -292
q3 -12 -3.5 -22.5t-18.5 -13.5t-22.5 3.5t-13.5 18.5q-21 88 -33 174q-5 -23 -11 -43q-20 -71 -47 -110q-40 -56 -95 -50q-64 8 -97 85q-23 55 -30 147q-9 127 11 263q2 13 12 20t22.5 5.5t19.5 -11.5t6 -22zM155 551q18 16 47 50q36 42 49 56q9 9 21.5 9t21.5 -8.5t9 -21
t-8 -21.5q-13 -13 -47 -53q-31 -35 -51 -55q-9 -8 -21.5 -8t-21 9t-8.5 21.5t9 21.5z" />
    <glyph glyph-name="ucircumflex" unicode="&#xfb;" horiz-adv-x="417" 
d="M90 466q-19 -130 -11 -251q6 -82 25 -128q19 -45 50 -48q18 -2 37 25q22 30 39 91q24 86 34 197q2 16 3.5 41.5t1.5 26.5q2 16 3 23t2 11q1 5 4 8q8 13 22 15q15 2 26 -10q3 -3 5 -7q1 -2 2 -5q0 -1 1 -3v-1v-2q0 -2 1 -6q0 -9 2 -23l8 -106q11 -148 45 -292
q3 -12 -3.5 -22.5t-18.5 -13.5t-22.5 3.5t-13.5 18.5q-21 88 -33 174q-5 -23 -11 -43q-20 -71 -47 -110q-40 -56 -95 -50q-64 8 -97 85q-23 55 -30 147q-9 127 11 263q2 13 12 20t22.5 5.5t19.5 -11.5t6 -22zM87 581l32 36l28 33q31 33 56 34q30 2 58 -35q12 -15 52 -78
q7 -10 4.5 -22.5t-13 -19t-23 -4t-18.5 13.5q-39 61 -49 74q-5 6 -9 10q-6 -5 -14 -13.5t-28 -32t-30 -36.5q-8 -9 -20.5 -10t-22 7t-10.5 20.5t7 22.5z" />
    <glyph glyph-name="udieresis" unicode="&#xfc;" horiz-adv-x="417" 
d="M90 466q-19 -130 -11 -251q6 -82 25 -128q19 -45 50 -48q18 -2 37 25q22 30 39 91q24 86 34 197q2 16 3.5 41.5t1.5 26.5q2 16 3 23t2 11q1 5 4 8q8 13 22 15q15 2 26 -10q3 -3 5 -7q1 -2 2 -5q0 -1 1 -3v-1v-2q0 -2 1 -6q0 -9 2 -23l8 -106q11 -148 45 -292
q3 -12 -3.5 -22.5t-18.5 -13.5t-22.5 3.5t-13.5 18.5q-21 88 -33 174q-5 -23 -11 -43q-20 -71 -47 -110q-40 -56 -95 -50q-64 8 -97 85q-23 55 -30 147q-9 127 11 263q2 13 12 20t22.5 5.5t19.5 -11.5t6 -22zM153 574q0 -12 -9 -21t-21 -9t-21 9t-9 21t9 21t21 9t21 -9
t9 -21zM264 571q0 -12 -9 -21t-21 -9t-21 9t-9 21t9 21t21 9t21 -9t9 -21z" />
    <glyph glyph-name="yacute" unicode="&#xfd;" horiz-adv-x="414" 
d="M382 469q-33 -147 -114 -344q-96 -236 -175 -308q-9 -9 -21.5 -8t-21 10t-7.5 21.5t10 20.5q47 43 108 169q-30 76 -80 219.5t-73 204.5q-4 12 1 23.5t16.5 15.5t23 -1t15.5 -16q24 -63 66.5 -186.5t65.5 -183.5l17 41q79 194 111 336q2 12 12.5 18.5t23 4t19 -13
t3.5 -23.5zM153 559q18 13 50 42l54 44q10 7 22 5.5t19.5 -11.5t6 -22t-11.5 -20l-50 -42l-54 -44q-10 -7 -22 -5.5t-19.5 11.5t-6 22t11.5 20z" />
    <glyph glyph-name="thorn" unicode="&#xfe;" horiz-adv-x="421" 
d="M95 6q-5 -89 -13 -171q-1 -12 -11 -20t-22 -7t-20 11t-7 22q10 104 15 230.5t6 200t0 240t-1 210.5q0 12 9 21t21 9t21 -9t9 -21q0 -54 0.5 -153.5t0.5 -134.5q73 91 154 72q37 -8 65 -37.5t45 -71.5q16 -40 19.5 -87t-7 -95.5t-41 -95t-78.5 -79.5q-24 -16 -49.5 -26.5
t-57 -14.5t-58.5 7zM103 304q-1 -128 -5 -232q25 -17 59 -12q33 5 69 30q38 26 63 63q24 37 32 75.5t6 75.5q-3 38 -16 71q-12 31 -30 49.5t-38 23.5q-46 10 -96 -55q-28 -36 -44 -89z" />
    <glyph glyph-name="ydieresis" unicode="&#xff;" horiz-adv-x="414" 
d="M382 469q-33 -147 -114 -344q-96 -236 -175 -308q-9 -9 -21.5 -8t-21 10t-7.5 21.5t10 20.5q47 43 108 169q-30 76 -80 219.5t-73 204.5q-4 12 1 23.5t16.5 15.5t23 -1t15.5 -16q24 -63 66.5 -186.5t65.5 -183.5l17 41q79 194 111 336q2 12 12.5 18.5t23 4t19 -13
t3.5 -23.5zM171 568q0 -12 -9 -21t-21 -9t-21 9t-9 21t9 21t21 9t21 -9t9 -21zM276 574q0 -12 -9 -21t-21 -9t-21 9t-9 21t9 21t21 9t21 -9t9 -21z" />
    <glyph glyph-name="OE" unicode="&#x152;" horiz-adv-x="678" 
d="M253 648q-36 -6 -39 -7q-54 -21 -92 -116q-40 -95 -42 -211q-2 -119 39 -195q43 -78 124 -80q70 -2 113 77t46 200q2 122 -37 216q-41 95 -107 114q-3 1 -5 2zM333 684q45 1 113 10q13 2 37 5l43 5l37 5q12 1 21.5 -6.5t11 -20t-6 -22t-20.5 -11.5q-17 -2 -36 -5l-43 -5
q-23 -3 -36 -5q-43 -5 -74 -8q23 -30 40 -71q41 -98 42 -220q33 1 104 8q12 1 22 -7t11 -20t-7 -22t-20 -11q-81 -7 -112 -8q-9 -112 -51 -188q-8 -14 -16 -26q126 2 218 15q12 1 22 -6.5t11.5 -19.5t-6 -22t-19.5 -12q-112 -15 -276 -15q-6 0 -11 2q-41 -25 -91 -24
q-115 3 -175 112q-48 89 -46 224q2 127 46 233q49 118 126 149q9 3 20.5 5.5t24 4t13.5 1.5q12 3 22 -4h2q26 -7 49 -22q5 2 10 2z" />
    <glyph glyph-name="oe" unicode="&#x153;" horiz-adv-x="630" 
d="M182 432q-6 -1 -11 -1q-1 0 -5 -0.5t-6 -0.5q-7 -1 -10 -3q-32 -16 -58 -76q-27 -63 -31 -134q-4 -76 21 -122t76 -50q65 -5 102 46q35 50 34 130q-1 71 -31 129.5t-81 81.5zM353 184q73 17 118 79q28 40 32.5 76t-7 56.5t-30.5 30.5q-13 7 -29.5 6.5t-35 -8.5t-36 -32
t-29.5 -61q17 -53 18 -109q0 -19 -1 -38zM287 31q-53 -52 -133 -46q-45 4 -77 26t-48.5 57t-23 73t-4.5 79q5 82 36 155q35 79 85 106q2 1 4 1q4 11 13.5 16t19.5 4q89 -17 143 -99q35 62 89.5 82.5t102.5 -6.5q60 -31 70 -100t-45 -150q-63 -89 -174 -108h-5
q-6 -19 -14 -36q19 -39 45 -50q24 -10 56 1t63 39.5t51 62.5q6 11 18 14t23 -3t14 -18t-3 -23q-24 -42 -63.5 -77.5t-83.5 -51.5q-53 -18 -98 1q-35 15 -61 51z" />
    <glyph glyph-name="quoteleft" unicode="&#x2018;" horiz-adv-x="196" 
d="M150 725q-91 -66 -102 -149q-2 -12 -12 -19.5t-22 -6t-19.5 11.5t-6.5 22q15 108 126 189q10 8 22.5 6t20 -12t5.5 -22.5t-12 -19.5z" />
    <glyph glyph-name="quoteright" unicode="&#x2019;" horiz-adv-x="202" 
d="M168 740q-5 -34 -17 -62.5t-31.5 -53.5t-37 -42t-45.5 -40q-9 -8 -21.5 -7t-20.5 10.5t-7 22t11 20.5q51 43 77 77.5t32 82.5q2 12 12 19.5t22 6t19.5 -11.5t6.5 -22z" />
    <glyph glyph-name="quotedblleft" unicode="&#x201c;" horiz-adv-x="291" 
d="M143 712q-78 -43 -78 -146q0 -12 -9 -21t-21 -9t-21 9t-9 21q0 64 27 116.5t83 81.5q11 6 22.5 2.5t17.5 -14.5t2.5 -22.5t-14.5 -17.5zM237 691q-43 -17 -66 -55t-23 -90q0 -12 -9 -21t-21 -9t-21 9t-9 21q0 68 32 121.5t95 79.5q11 4 22.5 -0.5t16 -16t0 -23
t-16.5 -16.5z" />
    <glyph glyph-name="quotedblright" unicode="&#x201d;" horiz-adv-x="292" 
d="M157 741q3 -69 -26 -118.5t-86 -95.5q-10 -8 -22.5 -7t-20 11t-6.5 22.5t11 19.5q49 40 70.5 77t19.5 89q0 12 8 21t20.5 9.5t21.5 -7.5t10 -21zM256 737q12 -78 -20.5 -136t-98.5 -107q-10 -8 -22.5 -6t-20 12t-5.5 22.5t12 19.5q56 42 80 86q24 42 15 99q-2 13 5.5 23
t20 12t22.5 -5.5t12 -19.5z" />
    <glyph glyph-name="perthousand" unicode="&#x2030;" horiz-adv-x="630" 
d="M593 674q-247 -312 -374 -660q-4 -12 -15.5 -17t-23 -1t-16.5 15.5t-1 22.5q130 357 382 678q8 9 20.5 10.5t22 -6t11 -20t-5.5 -22.5zM234 490q0 -12 -9 -21t-21 -9t-21 9t-9 21t9 21t21 9t21 -9t9 -21zM471 102q0 -12 -9 -21t-21 -9t-21 9t-9 21t9 21t21 9t21 -9t9 -21
zM590 90q0 -12 -9 -21t-21 -9t-21 9t-9 21t9 21t21 9t21 -9t9 -21z" />
    <glyph glyph-name="Euro" unicode="&#x20ac;" horiz-adv-x="679" 
d="M39 430q45 -4 108 -2q9 46 22 89q21 64 61 116t89 73q58 24 110 -6q53 -30 86 -115q4 -12 -1 -23t-16.5 -15.5t-22.5 0.5t-16 16q-25 65 -60 85q-26 15 -57 2q-34 -14 -66 -55.5t-49 -95.5q-11 -33 -18 -69q69 4 104 4q12 0 21 -9t9 -21t-9 -21t-21 -9q-33 0 -114 -4
q-5 -49 -3 -93q1 -9 1 -17q66 3 118 3q12 0 21 -9t9 -21t-9 -21t-21 -9q-49 0 -108 -2q18 -75 62 -119q22 -21 63 -32q86 -22 159 51q64 64 95 167q4 12 15 17.5t23 2t17.5 -14.5t2.5 -23q-36 -117 -111 -192q-97 -96 -215 -66q-57 15 -91 48q-60 59 -81 158l-60 -3
q-39 -2 -51.5 -3t-21.5 7.5t-10 21t7.5 21.5t20.5 10t49 3l57 3q0 7 -1 16q-2 45 3 93q-59 -1 -106 3q-12 1 -20 10.5t-7 22t10.5 20.5t22.5 7z" />
    <glyph glyph-name="trademark" unicode="&#x2122;" horiz-adv-x="721" 
d="M9 630q38 9 109 31q79 25 113 33q12 3 22.5 -3.5t13.5 -18.5t-3.5 -22.5t-18.5 -13.5q-34 -8 -92 -27q7 -53 12 -154q7 -117 14 -172q1 -13 -6.5 -22.5t-20 -11t-22 6t-11.5 19.5q-7 58 -14 176q-6 106 -10 140q-42 -12 -74 -19q-12 -3 -22.5 3.5t-13 19t4 23t19.5 12.5z
M326 292q0 49 -6 218q-3 65 -3 92v30q0 7 1 11q1 5 3 9q9 18 28 18q16 0 27 -14q5 -5 9 -13q5 -11 13 -32l12 -32q12 -32 19 -49q19 -44 33 -61l1 2q3 11 8 31q4 13 20 86q12 58 20 84q7 20 13 31q6 10 14 15q16 11 33 4q10 -4 16 -13q2 -3 4 -8l5 -15q5 -15 11 -43
q10 -38 29 -126q42 -196 51 -220q4 -11 -1 -22.5t-16.5 -15.5t-23 1t-15.5 17q-8 21 -54 227l-22 99l-6 -27q-19 -85 -20 -89q-5 -22 -10 -35q-7 -20 -15 -29q-21 -23 -48 -19q-21 4 -38 24q-18 21 -38 64q6 -147 6 -200q0 -12 -9 -21t-21 -9t-21 9t-9 21z" />
    <glyph glyph-name="uni3000" unicode="&#x3000;" horiz-adv-x="1000" 
 />
    <glyph glyph-name="uniF8FF" unicode="&#xf8ff;" horiz-adv-x="946" 
d="M128 396q1 11 2 29q0 23 1 29q11 65 43.5 122t82.5 117q8 10 20.5 11t22 -7t10.5 -20.5t-7 -21.5q-97 -117 -112 -211q-1 -2 -1 -21q-1 -24 -3 -39q-3 -25 -8 -42q-10 -28 -30 -39q-22 -13 -41 4q-8 7 -13 19q-2 4 -6 14q-1 5 -2 6q-9 15 -16.5 30t-15 33.5t-13 30.5
t-12.5 34t-10.5 31.5t-10.5 34.5t-9 31t-9.5 34t-8.5 31q-3 12 3 23t18 14t23 -3t14 -18q1 -3 8 -29l9 -31l8 -28q6 -23 8.5 -31t9 -27t10.5 -30l10 -26q6 -15 12 -28t13 -26zM-2 232q19 -29 44 -81q12 6 21 14q25 19 31 33q5 12 -6 29q-1 1 -13 6q-36 14 -77 -1zM315 29
q-5 10 -18 24q-71 77 -226 37q13 -30 24 -58q100 31 220 -3zM307 -31q-104 32 -191 7q2 -7 4 -13q3 -12 -3 -22.5t-18 -14t-22.5 2.5t-14.5 18l-1 5q-15 -9 -29 -20q-18 -15 -19 -20q-2 -12 2 -18q4 -7 18 -11q36 -12 100 0q67 12 119 40q41 23 55 46zM360 238q-6 4 -8 11
q-10 21 -18 26q-4 -2 -8 -9q-11 -20 -11 -48t13 -48q6 -8 8 -9l4 2q15 11 21 35l-2 14q-2 13 0 22q0 2 1 4zM748 333q10 7 17 15q8 10 11 37q-21 -21 -26 -43q-1 -5 -2 -9zM-160 183q135 152 257 106q30 -11 41 -28q29 -44 11 -87q-2 -5 -6 -11q75 5 131 -20
q-21 39 -19.5 80t19.5 73q26 44 66 40t66 -63q3 -5 3 -11q4 -2 8 -5q6 -5 11 -13q2 -3 10 -20q5 -10 10 -15q2 5 2.5 16t1.5 16v2q0 2 -1 6t-1 5q-2 12 0 19q4 17 19 23t29 -2q6 -3 11 -10q3 -3 6 -8q1 -2 10 -16q11 -18 17 -27q5 10 9 26q6 22 7 85q1 24 -1 49v13v5
q1 7 5 13q6 9 17 12q12 4 22 -2q7 -3 12 -10t9 -16q20 100 73 141q49 38 92 5q25 -20 39 -64l42 22q11 5 23 1.5t17.5 -14.5t2 -23t-14.5 -18l-59 -30q1 -21 0 -40q-4 -53 -26 -78q-33 -39 -70 -44q-36 -4 -49 29q-10 22 0 61q13 56 78 101l2 1q-1 3 -1 6q-9 33 -21 42
q-6 5 -19 -5q-44 -34 -56 -148q-4 -38 -3 -80q7 -17 22.5 -50t22.5 -50q16 -34 19 -44q7 -20 10 -34q1 -11 0 -20q-3 -20 -22 -28q-33 -13 -60 11q-16 14 -26 42q-7 17 -15 60q-9 43 -11 99q-1 -8 -3 -14q-14 -58 -42 -72q-32 -17 -63 13q-8 -22 -24 -33q-21 -13 -48 -5
q-12 3 -22 12q-13 -29 -34 -45q-20 -15 -42 -14l7 -6q29 -31 35 -61q3 -13 2 -27q19 -8 37 -17q11 -6 14.5 -18t-2 -23t-17.5 -14.5t-23 1.5l-23 12q-20 -43 -84 -77q-61 -34 -136 -47q-80 -15 -130 2q-33 11 -49 35q-18 27 -10 63q5 26 39 54q21 18 46 31l-28 66q-4 1 -7 3
q-19 10 -17 30q0 6 3 12q-27 55 -45 82q-29 -22 -62 -59q-8 -9 -20.5 -10t-21.5 7.5t-10 21t8 21.5zM340 441q0 -12 -9 -21t-21 -9t-21 9t-9 21t9 21t21 9t21 -9t9 -21z" />
  </font>
</defs>
</svg>
